<?xml version="1.0" standalone="no"?>
<!DOCTYPE svg PUBLIC "-//W3C//DTD SVG 1.1//EN" "http://www.w3.org/Graphics/SVG/1.1/DTD/svg11.dtd" >
<svg xmlns="http://www.w3.org/2000/svg" xmlns:xlink="http://www.w3.org/1999/xlink" version="1.1">
<metadata></metadata>
<defs>
<font id="sf_buttacup_lettering_shadeRg" horiz-adv-x="563" >
<font-face units-per-em="2048" ascent="1638" descent="-410" />
<missing-glyph horiz-adv-x="853" />
<glyph horiz-adv-x="0" />
<glyph unicode="&#xd;" horiz-adv-x="853" />
<glyph unicode=" "  horiz-adv-x="853" />
<glyph unicode="&#x09;" horiz-adv-x="853" />
<glyph unicode="&#xa0;" horiz-adv-x="853" />
<glyph unicode="!" d="M68 239h171l17 1160h-205zM51 171v-203h205v203h-205zM299 1432l123 -123l-18 -1212l18 -17v-278h-280l-123 123h-10v288h17l-17 1229h290v-10z" />
<glyph unicode="&#x22;" horiz-adv-x="785" d="M311 1058h129l43 341h-215zM89 1058h129l43 341h-215zM529 1432l125 -123l-52 -416h-198l-22 20l-1 -20h-198l-123 122h-11l-51 427h533z" />
<glyph unicode="#" horiz-adv-x="1161" d="M696 956l7 85h150v205h-131l14 153h-205l-14 -153h-85l13 153h-204l-14 -153h-176v-205h157l-7 -85h-150v-205h132l-14 -154h205l13 154h86l-14 -154h205l14 154h175v205h-157zM406 956l7 85h85l-6 -85h-86zM123 555l3 44l-107 109h-10v581h179l13 153h581l-2 -10 l125 -123l-4 -36l118 -118v-279h-10l10 -11v-280h-179l-14 -153h-280l-10 8v-8h-280l-123 123h-10z" />
<glyph unicode="$" horiz-adv-x="1215" d="M908 939q0 175 -84 297q-91 128 -259 157v177h-171v-179q-157 -27 -248 -142q-91 -112 -91 -276q0 -234 339 -360v-430q-140 44 -138 244h-205q0 -176 84 -297q91 -130 259 -156v-177h171v179q158 24 249 142q91 112 91 275q0 138 -106 232q-80 67 -234 126v432 q139 -45 138 -244h205zM394 817q-135 64 -135 156q0 165 135 210v-366zM700 393q0 -167 -135 -210v363q135 -63 135 -153zM730 1377q36 -20 67.5 -48t55.5 -63l82 -80q12 -12 24 -26t24 -30q90 -128 90 -357h-279l-64 63v-114q28 -16 52 -33t44 -34q17 -17 32 -33t26 -33 l3 -4l79 -76q51 -52 77.5 -112t26.5 -132q0 -175 -99 -299q-46 -60 -106 -96.5t-135 -52.5v-186h-245l-123 123h-10v113q-20 13 -38.5 27t-35.5 31l-87 85q-26 20 -48.5 43t-41.5 51q-48 66 -70 156.5t-22 208.5h290v-10l53 -53v115q-31 19 -57 39t-46 42l-83 82 q-154 118 -154 289q0 173 101 304q45 57 104.5 92.5t134.5 55.5v188h256v-10l122 -123v-103z" />
<glyph unicode="%" horiz-adv-x="1399" d="M606 1092q0 127 -67 212q-75 95 -196 95q-123 0 -198 -93q-68 -89 -68 -214q0 -124 68 -213q75 -94 198 -94q121 0 196 96q67 85 67 211zM72 56l179 -100l821 1353l-179 102zM1067 273q0 127 -67 212q-75 95 -196 95q-123 0 -198 -94q-68 -89 -68 -213t68 -213 q75 -92 198 -92q121 0 196 93q67 85 67 212zM435 1092q0 -136 -92 -136q-48 0 -75 46q-21 37 -21 90t21 91q27 46 75 46q92 0 92 -137zM896 273q0 -136 -92 -136q-48 0 -75 46q-21 37 -21 90t21 91q27 46 75 46q92 0 92 -137zM1126 1318l125 -123l-355 -586q40 -13 73.5 -38 t63.5 -61q2 -4 4 -6.5t4 -6.5l91 -89q6 -7 12.5 -14t12.5 -15q38 -51 56.5 -108t18.5 -126q0 -136 -75 -235q-42 -54 -99 -81t-126 -27q-123 0 -203 80l-86 86q-19 13 -36.5 28.5t-33.5 35.5q-4 5 -7.5 9.5t-7.5 9.5l-165 -275l-246 139l-115 112l-22 14l359 594 q-58 20 -101 66l-21 21l16 -17q-4 4 -7.5 8t-8.5 9l-64 63q-40 25 -70 67q-42 51 -60.5 109.5t-18.5 130.5t18.5 131t60.5 110q84 109 230 109q140 0 229 -113q1 -4 3.5 -6.5l4.5 -4.5l91 -91q-2 2 -3 2l-2 2l5 -4q6 -6 12.5 -13.5t12.5 -15.5q3 -5 9 -12l171 283l256 -145z " />
<glyph unicode="&#x26;" horiz-adv-x="1196" d="M804 802v137h-205v-137h-128q-75 0 -128 59t-53 136q0 75 53 137q52 61 128 61h364l25 204h-389q-157 0 -272 -117q-114 -116 -114 -273q0 -189 144 -301q-178 -115 -178 -338q0 -166 126 -284q127 -118 294 -118h333v629h85v205h-85zM471 171q-87 0 -150 64t-63 151 q0 85 64 148t149 63h128v-426h-128zM471 845h85v136h291v-10l122 -123v-51l86 -85v-280h-86v-630h-370q-182 0 -319 128l-87 87q-21 14 -45 38q-70 69 -104.5 145t-34.5 170q0 213 153 342q-119 119 -119 297t134 312v-2q123 123 294 123h437l-2 -10l125 -123l-34 -280h-398 q-58 0 -101 -49q-42 -45 -42 -111v-24h15zM556 427q-42 -10 -80 -48q-53 -53 -53 -121q0 -11 0.5 -21t3.5 -19q11 -2 22 -3.5t22 -1.5h85v214z" />
<glyph unicode="'" d="M89 1058h129l43 341h-215zM307 1432l125 -123l-51 -416h-198l-123 122h-11l-51 427h311z" />
<glyph unicode="(" horiz-adv-x="734" d="M444 -203q-188 444 -188 886q0 439 188 887h-210q-183 -432 -183 -887q0 -459 183 -886h210zM207 -246q-198 460 -198 929q0 235 48 466t148 464h304l-6 -10l125 -123q-103 -248 -154.5 -476t-51.5 -449t51.5 -450t154.5 -474h-290l-123 123h-8z" />
<glyph unicode=")" horiz-adv-x="734" d="M427 683q0 455 -183 887h-210q188 -448 188 -887t-188 -886h210q183 427 183 886zM-31 -246q105 249 157.5 480t52.5 449q0 432 -210 930h304l5 -16l120 -117q97 -233 145.5 -461.5t48.5 -463.5q0 -236 -48.5 -464t-147.5 -460h-290l-123 123h-14z" />
<glyph unicode="*" horiz-adv-x="939" d="M645 1164l-106 183l-95 -70v122h-205v-122l-96 70l-105 -183l107 -55l-107 -54l105 -183l96 70v-123h205v123l95 -70l106 183l-107 54zM128 809l-152 263l55 27l-34 38l-21 10l152 263l68 -50v82h290v-10l41 -43l28 21l15 -29l109 -108l147 -252l-53 -28l53 -51 l-147 -253l-70 50v-85h-280l-51 49l-19 -14l-124 125z" />
<glyph unicode="+" horiz-adv-x="939" d="M444 785v188h-205v-188h-188v-205h188v-187h205v187h187v205h-187zM797 695v-280h-188v-188h-280l-122 123h-11v65h-54l-123 123h-10v290h187v187h290v-10l123 -123v-54h65v-11z" />
<glyph unicode="," d="M89 -169h129l43 340h-215zM307 203l125 -123l-51 -415h-198l-123 123h-11l-51 425h311z" />
<glyph unicode="-" horiz-adv-x="939" d="M9 828v-290h10l123 -123h655v280l-123 122v11h-665zM51 580v205h580v-205h-580zM840 737v-30l123 -123v-335h-710l-123 123h-31l-123 123h-10v375h751v-10z" />
<glyph unicode="." d="M51 171v-203h205v203h-205zM422 80v-278h-280l-123 123h-10v288h290v-10z" />
<glyph unicode="/" horiz-adv-x="915" d="M0 -147l198 -51l461 1712l-198 51zM708 1536l125 -123l-481 -1785l-270 70l-121 121l-14 4l485 1795l280 -73z" />
<glyph unicode="0" horiz-adv-x="1536" d="M1271 683q0 295 -165 498q-176 218 -464 218q-289 0 -468 -218q-165 -203 -165 -498q0 -297 165 -499q178 -216 468 -216q288 0 464 216q165 202 165 499zM1067 683q0 -210 -106 -352q-118 -160 -319 -160q-202 0 -321 158q-108 144 -108 354q0 207 108 353 q118 159 321 159q200 0 319 -161q106 -142 106 -351zM244 55q-27 22 -53 47.5t-49 54.5q-91 109 -133.5 239t-42.5 287t42.5 286.5t133.5 238.5q192 234 500 234q307 0 496 -234q2 -2 3.5 -4.5t3.5 -3.5l68 -68q14 -14 26.5 -27.5t23.5 -27.5q174 -213 174 -522 q0 -310 -174 -523q-97 -115 -216.5 -172.5t-276.5 -57.5q-269 0 -451 179zM1024 683q0 88 -21.5 166t-63.5 141q-38 19 -79.5 29t-89.5 10q-94 0 -164.5 -35.5t-125.5 -107.5q-101 -137 -101 -331q0 -169 73 -290q79 -52 190 -52q181 0 285 144q97 133 97 326z" />
<glyph unicode="1" horiz-adv-x="657" d="M9 1399v-204h136v-1227h205v1431h-341zM515 1309v-1507h-279l-123 123h-11v1104h-3l-123 123h-10v290h427v-10z" />
<glyph unicode="2" horiz-adv-x="1215" d="M265 171q22 97 194 228q127 97 199 156.5t95 82.5q152 158 152 335q0 188 -119 307t-306 119q-188 0 -309 -117q-120 -116 -120 -304v-39h205q-3 256 224 256q103 0 161.5 -58t58.5 -164q0 -121 -168 -260q-78 -61 -155 -121t-155 -123q-167 -158 -167 -332v-169h858 l-26 203h-622zM1050 80l34 -278h-939l-123 123h-10v212q0 191 183 365q11 9 23.5 18.5t23.5 18.5q12 9 23.5 18t24.5 20l215 169q152 125 152 227q0 12 -1.5 24t-3.5 25q-11 3 -22 5t-22 2q-186 0 -186 -213v-43h-280l-123 123h-10v82q0 103 32 185.5t101 148.5 q133 130 338 130q200 0 327 -124v1q25 -26 48 -54l85 -86q130 -130 130 -334q0 -192 -162 -360q-26 -27 -99 -87t-200 -157q-10 -8 -19 -14.5t-17 -13.5h354l1 -12z" />
<glyph unicode="3" horiz-adv-x="1196" d="M889 370q0 222 -177 338q143 111 143 301q0 158 -115 273q-114 117 -271 117q-160 0 -273 -104q-111 -104 -111 -264v-41h205q-1 45 10.5 82.5t34.5 65t56.5 42.5t77.5 15q76 0 128 -61q53 -62 53 -137q0 -77 -53 -136t-128 -59h-150l-25 -205h175q85 0 150 -63 q64 -63 64 -148q0 -87 -64 -151q-63 -64 -150 -64q-97 0 -154 53.5t-61 150.5h-203q0 -180 118 -294q119 -113 300 -113q170 0 294 118q126 119 126 284zM937 550q118 -118 118 -308q0 -179 -139 -312q-137 -128 -319 -128q-193 0 -326 123l-90 89q-11 8 -20.5 16.5 t-20.5 18.5q-66 63 -98.5 153t-32.5 216h286v-12l123 -121q2 -20 3.5 -35.5t5.5 -31.5q28 -5 42 -5q69 0 120 52q51 51 51 121q0 10 -1.5 21t-5.5 21q-15 4 -36 4h-218l-123 123h-10l30 269h-100l-123 123h-10v84q0 91 30.5 163t93.5 132t137 88t165 28q171 0 294 -123v2 q13 -14 24.5 -27.5t23.5 -27.5l85 -85q125 -125 125 -300q0 -183 -120 -297l24 -24l5 -5zM469 845q54 0 98 44q41 44 41 108q0 19 -4 32h-7q-69 0 -105 -44.5t-36 -117.5v-22h13zM930 555q3 -3 7 -5z" />
<glyph unicode="4" horiz-adv-x="1118" d="M606 1399v-887h-355l148 887h-215l-182 -1092h604v-339h205v1431h-205zM976 1309v-1507h-280l-123 123h-10v217h-478l-123 123h-11l196 1177h302l-2 -8l116 -116v124h290v-10zM563 1258l-118 -703h118v703z" />
<glyph unicode="5" horiz-adv-x="1203" d="M896 444q0 184 -111 331q-122 159 -299 159q-96 0 -181 -43l48 304h383l51 204h-610l-131 -887l208 2q16 94 69 150q59 65 150 65q97 0 162 -96q56 -86 56 -188q0 -106 -49 -182q-59 -92 -156 -92q-162 0 -211 187l-195 -71q45 -146 147 -232q109 -87 258 -87 q184 0 302 148q109 136 109 328zM503 976q185 -8 309 -169l82 -80h-1l3 -2q13 -13 24.5 -27t23.5 -29q118 -154 118 -353q0 -103 -29 -189.5t-89 -162.5q-131 -162 -331 -162q-161 0 -282 96q-6 5 -12.5 11t-13.5 12l-85 84q-11 7 -20 17q-111 94 -173 292l99 36l-119 119 h-10l143 973h701l-3 -10l125 -123l-70 -280h-379zM428 280q4 -18 9 -33.5t10 -29.5q9 -3 19 -3.5t20 -0.5q69 0 125 84q18 33 28 69.5t10 78.5q0 31 -6.5 60.5t-17.5 55.5q-7 0 -13 1t-11 1q-73 0 -123 -53q-45 -45 -63 -162h-55z" />
<glyph unicode="6" horiz-adv-x="1195" d="M887 425q0 182 -116 319q-122 143 -302 143h-17l220 432l-182 92q-364 -712 -364 -815q0 1 2 -9l-31 48q-46 -96 -46 -210q0 -183 116 -317q122 -140 302 -140t302 140q116 134 116 317zM683 425q0 -99 -58 -172q-61 -82 -156 -82q-94 0 -157 82q-56 77 -56 172 q0 97 56 174q63 84 157 84t156 -84q58 -76 58 -174zM681 874q34 -20 64.5 -46t58.5 -57q6 -8 11.5 -15t12.5 -15l73 -72q10 -9 27 -29q125 -146 125 -343q0 -195 -125 -341q-135 -154 -331 -154q-178 0 -303 125l-81 78q-20 16 -40 34.5t-38 40.5q-126 148 -126 345 q0 116 83 300l17 -27q38 104 128 295.5t234 475.5l259 -131l-3 -7l125 -123zM640 425q0 46 -17 89q-7 1 -13 2t-13 1q-76 0 -126 -68q-49 -70 -49 -152q0 -49 10 -80q15 -4 37 -4q38 0 67.5 16.5t54.5 48.5q49 64 49 147zM369 246l-5 5z" />
<glyph unicode="7" horiz-adv-x="1109" d="M38 1195h505l-552 -1227h229l644 1431h-801zM925 1432l125 -123l-678 -1507h-311l-122 123h-14l495 1104h-297l-123 123h-10l34 290h906z" />
<glyph unicode="8" horiz-adv-x="1196" d="M889 370q0 222 -177 338q143 111 143 301q0 159 -115 274q-114 116 -271 116q-158 0 -271 -116t-113 -274q0 -190 142 -301q-176 -114 -176 -336q0 -169 124 -287q124 -117 294 -117q168 0 294 117q126 118 126 285zM650 997q0 -77 -53 -136t-128 -59t-128 59 q-51 58 -51 136t51 138q52 60 128 60q77 0 129 -61t52 -137zM683 386q0 -87 -64 -151q-63 -64 -150 -64t-150 64t-63 151t63 149q65 62 150 62t150 -63q64 -63 64 -148zM937 550q118 -118 118 -308q0 -91 -34.5 -169.5t-104.5 -142.5q-137 -128 -319 -128t-319 128l-85 85 q-25 18 -46 40q-72 66 -105 143t-33 174q0 213 151 340q-117 120 -117 297q0 176 124 303q126 130 302 130q91 0 164.5 -32t137.5 -96q13 -13 24.5 -26.5t21.5 -26.5l79 -78q125 -125 125 -302q0 -183 -120 -297l24 -24q2 -3 6 -5.5t6 -4.5zM640 386q0 10 -1.5 21t-5.5 21 q-15 4 -36 4q-71 0 -124 -53q-51 -50 -51 -121q0 -11 0.5 -21t2.5 -19q13 -2 23.5 -3.5t20.5 -1.5q69 0 120 52q51 51 51 121zM608 997q0 19 -4 32h-7q-60 0 -99 -46q-42 -47 -42 -114v-24h13q54 0 98 44q41 44 41 108zM681 995q0 2 -2 2z" />
<glyph unicode="9" horiz-adv-x="1195" d="M887 940q0 181 -116 318q-122 141 -302 141q-179 0 -302 -141q-116 -137 -116 -318q0 -182 116 -319q123 -143 302 -143h17l-220 -432l183 -90q363 711 363 814q0 7 -1 8l30 -48q46 96 46 210zM683 940q0 -98 -57 -174q-63 -83 -157 -83q-93 0 -155 83q-58 76 -58 174 q0 100 58 173q61 82 155 82t157 -82q57 -75 57 -173zM218 514q-22 17 -43 37t-40 43q-126 148 -126 346q0 196 126 345q136 157 334 157q103 0 184.5 -39.5t150.5 -117.5q5 -6 10 -13.5t10 -13.5l4 -4l73 -71l14 -14t13 -15q63 -75 94 -158.5t31 -183.5q0 -117 -78 -288 l-21 20q-36 -104 -126 -295t-234 -473l-251 125l-118 118l-17 8l174 342q-24 15 -46 33t-42 38q-5 4 -10.5 9t-10.5 10l21 -19zM640 940q0 44 -15 86q-7 1 -13.5 2t-14.5 1q-76 0 -126 -68q-26 -32 -37.5 -69t-11.5 -80q0 -23 1.5 -43.5t8.5 -39.5q15 -4 37 -4q74 0 123 67 q48 67 48 148z" />
<glyph unicode=":" d="M51 973v-205h205v205h-205zM51 171v-203h205v203h-205zM422 882v-280h-280l-123 123h-10v290h290v-10zM422 80v-278h-280l-123 123h-10v288h290v-10z" />
<glyph unicode=";" d="M51 973v-205h205v205h-205zM89 -169h129l43 340h-215zM307 203l125 -123l-51 -415h-198l-123 123h-11l-51 425h311zM422 882v-280h-280l-123 123h-10v290h290v-10z" />
<glyph unicode="&#x3c;" horiz-adv-x="879" d="M609 1058h-268l-300 -375l300 -376h268l-300 376zM816 968l-331 -413l331 -413h-365l-123 123h-7l-335 418l335 418h377l-7 -9z" />
<glyph unicode="=" horiz-adv-x="939" d="M51 922v-205h580v205h-580zM51 649v-205h580v205h-580zM797 831v-553h-655l-123 123h-10v563h665v-10z" />
<glyph unicode="&#x3e;" horiz-adv-x="879" d="M14 1058l300 -375l-300 -376h268l300 376l-300 375h-268zM428 968l330 -413l-330 -413h-365l-123 123h-15l334 418l-334 418h377l27 -34z" />
<glyph unicode="?" horiz-adv-x="1215" d="M905 973q0 188 -119 307t-306 119q-188 0 -309 -117q-120 -116 -120 -304v-39h205q-3 256 224 256q103 0 161.5 -59.5t58.5 -162.5q0 -115 -125 -202q-209 -149 -229 -169q-122 -135 -121 -351v-12h205v10q-2 131 56 200q19 23 60.5 56t105.5 76q129 85 183 160 q70 94 70 232zM225 171v-203h205v203h-205zM9 896v82q0 103 32 185.5t101 148.5q133 130 338 130q200 0 327 -124v1q25 -26 48 -54l85 -86q130 -130 130 -334q0 -150 -77 -254q-28 -39 -75.5 -81t-117.5 -88q-61 -40 -100.5 -71.5t-56.5 -53.5q-47 -62 -47 -166v-329h-280 l-123 123h-10v334q0 233 133 372q21 22 234 175q107 71 107 167q0 32 -7 53q-10 1 -21 2t-21 1q-186 0 -186 -213v-43h-280l-123 123h-10z" />
<glyph unicode="@" horiz-adv-x="1536" d="M1271 683q0 295 -165 498q-176 218 -464 218q-289 0 -468 -218q-165 -203 -165 -498q0 -297 165 -499q178 -216 468 -216q288 0 464 216q165 202 165 499zM1067 683q0 -210 -106 -352q-118 -160 -319 -160q-202 0 -321 158q-108 145 -108 354q0 207 108 353 q118 159 321 159q200 0 319 -161q106 -142 106 -351zM565 1075l-205 -785h176l44 171h120l44 -171h176l-207 785h-148zM640 705l19 -74h-39zM244 55q-27 22 -53 47.5t-49 54.5q-91 109 -133.5 239t-42.5 287t42.5 286.5t133.5 238.5q192 234 500 234q307 0 496 -234 q2 -2 3.5 -4.5t3.5 -3.5l68 -68q14 -14 26.5 -27.5t23.5 -27.5q174 -213 174 -522q0 -310 -174 -523q-97 -115 -216.5 -172.5t-276.5 -57.5q-269 0 -451 179zM1024 683q0 179 -85 307q-25 13 -52.5 21t-57.5 13l41 -39l127 -487q13 43 20 88.5t7 96.5zM468 869 q-89 -134 -89 -314v-28zM719 220q5 2 11 3t11 2l-17 17zM601 215l-33 34v-2z" />
<glyph unicode="A" horiz-adv-x="1109" d="M329 1399l-372 -1431h212l87 339h341l87 -339h214l-376 1431h-193zM427 993l128 -481h-256zM679 1309l394 -1507h-290l-123 123h-8l-56 217h-185l-85 -340h-288l-123 123h-12l394 1517h258l3 -12z" />
<glyph unicode="B" horiz-adv-x="1246" d="M939 375q0 216 -169 318q135 106 135 297q0 171 -111 290q-110 119 -280 119h-463v-1431h497q171 0 281 119q110 116 110 288zM700 990q0 -88 -51 -146q-50 -59 -135 -59h-258v410h258q85 0 135 -59q51 -59 51 -146zM734 375q0 -88 -51 -146q-49 -58 -135 -58h-292v409 h292q85 0 135 -59q51 -59 51 -146zM949 1178q121 -130 121 -316q0 -180 -111 -292l24 -22l-3 2l15 -14q109 -109 109 -289q0 -189 -119 -314q-119 -131 -309 -131h-534l-123 123h-10v1517h505q97 0 172 -32t138 -101q11 -11 19.5 -22t16.5 -22l82 -82l3 -3t4 -2zM691 375 q0 9 -1 19t-2 19q-8 2 -12 2h-254v-202h126q33 0 59 12.5t45 34t29 51t10 64.5zM657 990q0 9 -1 18.5t-2 18.5q-8 2 -12 2h-220v-201h92q33 0 59 12.5t45 34t29 51t10 64.5z" />
<glyph unicode="C" horiz-adv-x="1493" d="M1036 478q-111 -307 -394 -307q-202 0 -321 158q-108 145 -108 354q0 207 108 353q118 159 321 159q283 0 394 -308l203 36q-72 215 -220 342q-161 134 -377 134q-289 0 -468 -218q-165 -203 -165 -498q0 -297 165 -499q178 -216 468 -216q216 0 377 131q147 124 220 340 zM1295 471q-1 -1 -1 -4q0 -2 -2 -4l125 -123q-45 -136 -106.5 -233.5t-139.5 -164.5q-88 -69 -187 -104.5t-214 -35.5q-269 0 -451 179l-75 74q-27 22 -53 47.5t-49 54.5q-91 109 -133.5 239t-42.5 287t42.5 286.5t133.5 238.5q192 234 500 234q232 0 404 -145 q23 -20 45 -42t42 -48l75 -75q129 -131 209 -367l-277 -48l-123 123l-8 -2q-17 45 -35 82t-40 68q-74 41 -164 41q-94 0 -164.5 -35.5t-125.5 -107.5q-101 -137 -101 -331q0 -85 18 -156t54 -134q79 -52 191 -52q255 0 367 316z" />
<glyph unicode="D" horiz-adv-x="1289" d="M1024 683q0 293 -166 498q-176 218 -464 218h-343v-1431h343q288 0 464 216q166 205 166 499zM819 683q0 -210 -106 -352q-117 -160 -319 -160h-138v1024h138q202 0 319 -161q106 -142 106 -351zM9 -75v1517h385q308 0 497 -234q2 -2 2.5 -4t2.5 -4l70 -68 q13 -14 25.5 -27.5t23.5 -27.5q175 -217 175 -522q0 -306 -175 -523q-97 -115 -216.5 -172.5t-276.5 -57.5h-380l-123 123h-10zM777 683q0 88 -22 166t-64 141q-37 19 -79 29t-90 10h-100v-816q163 11 257 144q48 66 73 147.5t25 178.5z" />
<glyph unicode="E" horiz-adv-x="1024" d="M256 171v409h295l-25 205h-270v410h440l26 204h-671v-1431h671l-26 203h-440zM858 80l35 -278h-751l-123 123h-10v1517h761l-2 -10l125 -123l-35 -280h-436v-201h143l2 -12l121 -121l34 -280h-300v-202h314l1 -12z" />
<glyph unicode="F" horiz-adv-x="981" d="M51 -32h205v612h295l-25 205h-270v410h440l26 204h-671v-1431zM768 1432l125 -123l-35 -280h-436v-201h143l2 -12l121 -121l34 -280h-300v-613h-280l-123 123h-10v1517h761z" />
<glyph unicode="G" horiz-adv-x="1536" d="M1239 923q-72 215 -220 342q-161 134 -377 134q-289 0 -466 -218q-167 -203 -167 -498q0 -296 167 -499q177 -216 466 -216q230 0 382 158v-158h205v749h-623v-205h418v-68q-50 -126 -150 -199q-101 -74 -232 -74q-202 0 -321 158q-108 145 -108 354q0 207 108 353 q118 159 321 159q141 0 245 -87q99 -81 149 -221zM247 53q-28 22 -53.5 48.5t-50.5 55.5q-177 216 -177 526q0 309 177 525q190 234 499 234q232 0 404 -145q23 -20 45 -42t42 -48l68 -69l-2 2q-1 0 -3 2l12 -10q129 -131 209 -367l-139 -24l116 -115v-824h-280l-68 68 q-60 -35 -129 -51.5t-147 -16.5q-270 0 -449 179zM379 555q0 -85 18 -156t54 -134q79 -52 191 -52q85 0 154 35t120 98h-220l-123 123h-10v290h533l-81 81l-8 -2q-32 90 -72 152q-37 19 -78.5 29t-86.5 10q-94 0 -164.5 -35.5t-125.5 -107.5q-101 -137 -101 -331z" />
<glyph unicode="H" horiz-adv-x="1161" d="M649 1399v-614h-393v614h-205v-1431h205v612h393v-612h204v1431h-204zM1019 1309v-1507h-280l-123 123h-10v490h-184v-613h-280l-123 123h-10v1517h290v-10l123 -123v-481h184v614h290v-10z" />
<glyph unicode="I" d="M51 1399v-1431h205v1431h-205zM422 1309v-1507h-280l-123 123h-10v1517h290v-10z" />
<glyph unicode="J" horiz-adv-x="1050" d="M538 1399v-1058q0 -66 -47 -119q-47 -51 -116 -51q-66 0 -114 52t-48 118v205h-204v-205q0 -150 108 -262q108 -111 258 -111q153 0 260 110t107 263v1058h-204zM908 1309v-1096q0 -169 -118 -290q-115 -121 -287 -121q-85 0 -155.5 30.5t-130.5 90.5l-79 77 q-14 11 -27 23t-26 25q-119 125 -119 293v248h290v-10l123 -123v-243q24 1 45.5 12t37 28.5t24.5 40t9 47.5v1101h290v-10z" />
<glyph unicode="K" horiz-adv-x="1118" d="M887 1399h-256l-375 -520v520h-205v-1431h205v518l375 -518h256l-537 715zM1091 1309l-565 -754l565 -753h-350l-123 123h-7l-189 261v-384h-280l-123 123h-10v1517h290v-10l123 -123v-128l187 261h364l-7 -8z" />
<glyph unicode="L" horiz-adv-x="981" d="M256 171v1228h-205v-1431h671l-26 203h-440zM858 80l35 -278h-751l-123 123h-10v1517h290v-10l123 -123v-1096h314l1 -12z" />
<glyph unicode="M" horiz-adv-x="1343" d="M785 1399l-241 -991l-242 991h-270l-66 -1431h225l38 909l216 -909h197l216 909l38 -909h227l-68 1431h-270zM1219 1309l71 -1507h-302l-123 123h-10l-5 97l-51 -220h-255l-122 123h-11l-44 183l-12 -306h-300l-123 123h-11l70 1517h345l4 -14l119 -119l130 -536l162 669 h345v-12z" />
<glyph unicode="N" horiz-adv-x="1161" d="M649 1399v-928l-405 928h-193v-1431h205v926l404 -926h193v1431h-204zM1019 1309v-1507h-254l-123 123h-9l-211 485v-608h-280l-123 123h-10v1517h262l7 -15l118 -118l210 -481v614h290v-10z" />
<glyph unicode="O" horiz-adv-x="1536" d="M1271 683q0 295 -165 498q-176 218 -464 218q-289 0 -468 -218q-165 -203 -165 -498q0 -297 165 -499q178 -216 468 -216q288 0 464 216q165 202 165 499zM1067 683q0 -210 -106 -352q-118 -160 -319 -160q-202 0 -321 158q-108 144 -108 354t108 353q118 159 321 159 q200 0 319 -161q106 -142 106 -351zM244 55q-27 22 -53 47.5t-49 54.5q-91 109 -133.5 239t-42.5 287t42.5 286.5t133.5 238.5q192 234 500 234q307 0 496 -234q2 -2 3.5 -4.5t3.5 -3.5l68 -68q14 -14 26.5 -27.5t23.5 -27.5q174 -213 174 -522q0 -310 -174 -523 q-97 -115 -216.5 -172.5t-276.5 -57.5q-269 0 -451 179zM1024 683q0 88 -21.5 166t-63.5 141q-38 19 -79.5 29t-89.5 10q-94 0 -164.5 -35.5t-125.5 -107.5q-101 -137 -101 -331q0 -169 73 -290q79 -52 190 -52q181 0 285 144q97 133 97 326z" />
<glyph unicode="P" horiz-adv-x="1203" d="M939 990q0 171 -110 290t-281 119h-497v-1431h205v612h292q172 0 281 121q110 116 110 289zM734 990q0 -88 -51 -146q-50 -59 -135 -59h-292v410h292q85 0 135 -59q51 -59 51 -146zM983 1178q121 -130 121 -316q0 -189 -119 -314q-120 -133 -309 -133h-254v-613h-280 l-123 123h-10v1517h539q190 0 310 -133q11 -11 19.5 -22t16.5 -22l82 -82q4 -4 7 -5zM691 990q0 9 -1 18.5t-2 18.5q-8 2 -12 2h-254v-201h126q33 0 59 12.5t45 34t29 51t10 64.5zM770 993q0 2 -2 2z" />
<glyph unicode="Q" horiz-adv-x="1536" d="M1075 148q196 211 196 535q0 295 -165 498q-176 218 -464 218q-289 0 -468 -218q-165 -203 -165 -498q0 -297 165 -499q178 -216 468 -216q145 0 268 58l244 -243l145 145zM1067 683q0 -237 -137 -389l-304 303l-145 -143l270 -270q-48 -13 -109 -13q-202 0 -321 158 q-108 144 -108 354q0 207 108 353q118 159 321 159q200 0 319 -161q106 -142 106 -351zM244 55q-27 22 -53 47.5t-49 54.5q-91 109 -133.5 239t-42.5 287t42.5 286.5t133.5 238.5q192 234 500 234q307 0 496 -234q2 -2 3.5 -4.5t3.5 -3.5l68 -68q14 -14 26.5 -27.5 t23.5 -27.5q174 -213 174 -522q0 -313 -177 -529l100 -98l-3 -3l124 -125l-199 -199l-125 124l-3 -3l-132 130q-124 -50 -252 -50q-269 0 -451 179zM1024 683q0 88 -21.5 166t-63.5 141q-38 19 -79.5 29t-89.5 10q-94 0 -164.5 -35.5t-125.5 -107.5q-101 -137 -101 -331 q0 -85 17 -157t55 -132q80 -53 191 -53h18l-240 241l208 203l299 -299q97 134 97 325z" />
<glyph unicode="R" horiz-adv-x="1203" d="M548 580q172 0 281 121q110 116 110 289q0 171 -110 290t-281 119h-497v-1431h205v553l466 -553h256l-515 612h85zM734 990q0 -88 -51 -146q-50 -59 -135 -59h-292v410h292q85 0 135 -59q51 -59 51 -146zM9 -75v1517h539q190 0 310 -133q8 -11 16.5 -20t14.5 -19l75 -74 q-1 0 -3 1t-2 3l9 -9q-2 0 -2 4l17 -17q60 -67 90.5 -144.5t30.5 -171.5q0 -189 -119 -314q-120 -133 -309 -133h-5l515 -613h-353l-123 123h-7l-281 333v-456h-280l-123 123h-10zM691 990q0 9 -1 18.5t-2 18.5q-8 2 -12 2h-254v-201h126q33 0 59 12.5t45 34t29 51t10 64.5z " />
<glyph unicode="S" horiz-adv-x="1215" d="M908 939q2 203 -111 329q-119 131 -317 131q-188 0 -307 -119q-118 -118 -118 -307q0 -176 167 -278q12 -11 310 -135q168 -71 168 -167q0 -106 -57 -164t-163 -58q-227 0 -224 256h-205q-2 -203 111 -330q118 -129 318 -129q187 0 306 117q119 119 119 308 q0 174 -168 278q-10 7 -310 133q-168 70 -168 169q0 106 57.5 164t163.5 58q227 0 223 -256h205zM200 5q-18 14 -35.5 29.5t-33.5 33.5q-122 137 -122 350v51h290v-10l123 -123v-42q0 -22 1 -40.5t5 -35.5q12 -2 25 -3.5t27 -1.5q85 0 131 47.5t46 132.5q-4 1 -6.5 1.5 t-5.5 3.5q-289 121 -319 138l3 -2q-24 16 -45.5 32.5t-39.5 34.5l-80 80q-152 110 -152 292q0 208 130 338q131 131 338 131q218 0 348 -145q8 -9 15 -19t15 -18l87 -89q4 -4 7 -5q121 -133 121 -347v-46h-279l-123 123h-11v48q0 23 -2 42.5t-6 37.5q-13 2 -23.5 3.5 t-20.5 1.5q-85 0 -133 -47t-50 -132q7 -4 17 -7q157 -64 238 -100.5t86 -39.5q42 -27 74 -57.5t54 -65.5l58 -58l2 -1l14 -12q51 -51 76.5 -111t25.5 -133q0 -208 -131 -333l1 -2q-128 -128 -332 -128q-203 0 -328 125l-5 5q-3 2 -6.5 5t-5.5 7zM952 522q2 0 2 -1z" />
<glyph unicode="T" horiz-adv-x="1161" d="M3 1195h347v-1227h205v1227h321l25 204h-872zM947 1432l125 -123l-34 -280h-318v-1227h-280l-123 123h-10v1104h-218l-123 123h-10l34 290h959z" />
<glyph unicode="U" horiz-adv-x="1280" d="M768 1399v-972q0 -104 -75 -180t-179 -76q-105 0 -181 76q-77 77 -77 180v972h-205v-972q0 -190 136 -325q137 -134 327 -134q187 0 324 134q135 135 135 325v972h-205zM1138 1309v-1010q0 -208 -145 -352q-145 -145 -351 -145q-209 0 -354 145l-78 77q-14 11 -27 23 t-26 25q-75 75 -111.5 162t-36.5 193v1015h290v-10l123 -123v-1010q0 -41 10 -70q32 -16 82 -16q85 0 157 72v-2q27 31 40.5 65t13.5 79v1015h290v-10z" />
<glyph unicode="V" horiz-adv-x="1109" d="M427 379l-258 1020h-212l372 -1431h193l376 1431h-214zM949 1432l124 -123l-394 -1507h-251l-123 123h-8l-394 1517h298l2 -12l123 -121l145 -580l181 713h300z" />
<glyph unicode="W" horiz-adv-x="1343" d="M753 474l-108 925h-203l-107 -925l-164 925h-210l246 -1431h269l68 636l67 -636h270l247 1431h-212zM1178 1432l122 -123l-259 -1507h-336l-60 60l-7 -60h-336l-123 123h-10l-259 1517h298l2 -14l121 -119l34 -193l38 326h281l2 -12l121 -121l19 -169l53 302h300z" />
<glyph unicode="X" horiz-adv-x="1109" d="M864 1399h-229l-208 -493l-209 493h-227l321 -716l-321 -715h227l209 491l208 -491h229l-323 715zM1050 1309l-340 -754l340 -753h-311l-123 123h-8l-94 217l-144 -340h-309l-122 123h-14l341 758l-341 759h322l6 -15l119 -118l87 -213l147 346h324l-5 -10z" />
<glyph unicode="Y" horiz-adv-x="1024" d="M384 855l-207 544h-226l331 -808v-623h204v623l333 808h-228zM877 1432l125 -123l-350 -852v-655h-280l-123 123h-10v659l-352 858h321l5 -14l120 -119l87 -234l140 367h322z" />
<glyph unicode="Z" horiz-adv-x="1109" d="M38 1195h505l-552 -1227h825l-26 203h-479l553 1228h-801zM925 1432l125 -123l-495 -1096h274l2 -12l121 -121l34 -278h-925l-122 123h-14l495 1104h-297l-123 123h-10l34 290h906z" />
<glyph unicode="[" horiz-adv-x="768" d="M256 0v1365h205v205h-410v-1773h410v203h-205zM626 -90v-279h-484l-123 123h-10v1859h494v-10l123 -123v-280h-204v-1157h81v-11z" />
<glyph unicode="\" horiz-adv-x="915" d="M0 1514l461 -1712l198 51l-461 1712zM352 1483l481 -1785l-270 -70l-123 123l-8 -2l-485 1796l280 73l3 -14z" />
<glyph unicode="]" horiz-adv-x="768" d="M51 1570v-205h205v-1365h-205v-203h410v1773h-410zM626 1480v-1849h-484l-123 123h-10v289h204v1157h-71l-123 123h-10v290h494v-10z" />
<glyph unicode="^" horiz-adv-x="1058" d="M300 1399l-262 -750h227l136 435l137 -435h227l-263 750h-202zM657 1309l288 -826h-307l-123 123h-8l-24 77l-63 -200h-307l-123 123h-12l292 836h262l4 -14z" />
<glyph unicode="_" horiz-adv-x="939" d="M-32 137v-169h749v169h-749zM882 46v-244h-824l-123 123h-10v254h834v-10z" />
<glyph unicode="`" horiz-adv-x="700" d="M27 1792l209 -375h170l-126 375h-253zM435 1702l152 -451h-246l-123 123h-8l-254 461h355l3 -14z" />
<glyph unicode="a" horiz-adv-x="1109" d="M329 1399l-372 -1431h212l87 339h341l87 -339h214l-376 1431h-193zM427 993l128 -481h-256zM679 1309l394 -1507h-290l-123 123h-8l-56 217h-185l-85 -340h-288l-123 123h-12l394 1517h258l3 -12z" />
<glyph unicode="b" horiz-adv-x="1246" d="M939 375q0 216 -169 318q135 106 135 297q0 171 -111 290q-110 119 -280 119h-463v-1431h497q171 0 281 119q110 116 110 288zM700 990q0 -88 -51 -146q-50 -59 -135 -59h-258v410h258q85 0 135 -59q51 -59 51 -146zM734 375q0 -88 -51 -146q-49 -58 -135 -58h-292v409 h292q85 0 135 -59q51 -59 51 -146zM949 1178q121 -130 121 -316q0 -180 -111 -292l24 -22l-3 2l15 -14q109 -109 109 -289q0 -189 -119 -314q-119 -131 -309 -131h-534l-123 123h-10v1517h505q97 0 172 -32t138 -101q11 -11 19.5 -22t16.5 -22l82 -82l3 -3t4 -2zM691 375 q0 9 -1 19t-2 19q-8 2 -12 2h-254v-202h126q33 0 59 12.5t45 34t29 51t10 64.5zM657 990q0 9 -1 18.5t-2 18.5q-8 2 -12 2h-220v-201h92q33 0 59 12.5t45 34t29 51t10 64.5z" />
<glyph unicode="c" horiz-adv-x="1493" d="M1036 478q-111 -307 -394 -307q-202 0 -321 158q-108 145 -108 354q0 207 108 353q118 159 321 159q283 0 394 -308l203 36q-72 215 -220 342q-161 134 -377 134q-289 0 -466 -218q-167 -203 -167 -498q0 -297 165 -499q178 -216 468 -216q216 0 377 131q147 124 220 340 zM1295 471q-1 -1 -1 -4q0 -2 -2 -4l125 -123q-45 -136 -106.5 -233.5t-139.5 -164.5q-88 -69 -187 -104.5t-214 -35.5q-269 0 -451 179l-75 74q-27 22 -53 47.5t-49 54.5q-91 109 -133.5 239t-42.5 287q0 309 177 525q190 234 499 234q232 0 404 -145q23 -20 45 -42t42 -48 l75 -75q129 -131 209 -367l-277 -48l-123 123l-8 -2q-17 45 -35 82t-40 68q-74 41 -164 41q-94 0 -164.5 -35.5t-125.5 -107.5q-101 -137 -101 -331q0 -85 18 -156t54 -134q79 -52 191 -52q255 0 367 316z" />
<glyph unicode="d" horiz-adv-x="1289" d="M1024 683q0 293 -166 498q-176 218 -464 218h-343v-1431h343q288 0 464 216q166 205 166 499zM819 683q0 -210 -106 -352q-117 -160 -319 -160h-138v1024h138q202 0 319 -161q106 -142 106 -351zM9 -75v1517h385q308 0 497 -234q2 -2 2.5 -4t2.5 -4l70 -68 q13 -14 25.5 -27.5t23.5 -27.5q175 -217 175 -522q0 -306 -175 -523q-97 -115 -216.5 -172.5t-276.5 -57.5h-380l-123 123h-10zM777 683q0 88 -22 166t-64 141q-37 19 -79 29t-90 10h-100v-816q163 11 257 144q48 66 73 147.5t25 178.5z" />
<glyph unicode="e" horiz-adv-x="1024" d="M256 171v409h295l-25 205h-270v410h440l26 204h-671v-1431h671l-26 203h-440zM858 80l35 -278h-751l-123 123h-10v1517h761l-2 -10l125 -123l-35 -280h-436v-201h143l2 -12l121 -121l34 -280h-300v-202h314l1 -12z" />
<glyph unicode="f" horiz-adv-x="981" d="M51 -32h205v612h295l-25 205h-270v410h440l26 204h-671v-1431zM768 1432l125 -123l-35 -280h-436v-201h143l2 -12l121 -121l34 -280h-300v-613h-280l-123 123h-10v1517h761z" />
<glyph unicode="g" horiz-adv-x="1536" d="M1239 923q-72 215 -220 342q-161 134 -377 134q-289 0 -466 -218q-167 -203 -167 -498q0 -296 167 -499q177 -216 466 -216q230 0 382 158v-158h205v749h-623v-205h418v-68q-50 -126 -150 -199q-101 -74 -232 -74q-202 0 -321 158q-108 145 -108 354q0 207 108 353 q118 159 321 159q141 0 245 -87q99 -81 149 -221zM247 53q-28 22 -53.5 48.5t-50.5 55.5q-177 216 -177 526q0 309 177 525q190 234 499 234q232 0 404 -145q23 -20 45 -42t42 -48l68 -69l-2 2q-1 0 -3 2l12 -10q129 -131 209 -367l-139 -24l116 -115v-824h-280l-68 68 q-60 -35 -129 -51.5t-147 -16.5q-270 0 -449 179zM379 555q0 -85 18 -156t54 -134q79 -52 191 -52q85 0 154 35t120 98h-220l-123 123h-10v290h533l-81 81l-8 -2q-32 90 -72 152q-37 19 -78.5 29t-86.5 10q-94 0 -164.5 -35.5t-125.5 -107.5q-101 -137 -101 -331z" />
<glyph unicode="h" horiz-adv-x="1161" d="M649 1399v-614h-393v614h-205v-1431h205v612h393v-612h204v1431h-204zM1019 1309v-1507h-280l-123 123h-10v490h-184v-613h-280l-123 123h-10v1517h290v-10l123 -123v-481h184v614h290v-10z" />
<glyph unicode="i" d="M51 1399v-1431h205v1431h-205zM422 1309v-1507h-280l-123 123h-10v1517h290v-10z" />
<glyph unicode="j" horiz-adv-x="1050" d="M538 1399v-1058q0 -66 -47 -119q-47 -51 -116 -51q-66 0 -114 52t-48 118v205h-204v-205q0 -150 108 -262q108 -111 258 -111q153 0 260 110t107 263v1058h-204zM908 1309v-1096q0 -169 -118 -290q-115 -121 -287 -121q-85 0 -155.5 30.5t-130.5 90.5l-79 77 q-14 11 -27 23t-26 25q-119 125 -119 293v248h290v-10l123 -123v-243q24 1 45.5 12t37 28.5t24.5 40t9 47.5v1101h290v-10z" />
<glyph unicode="k" horiz-adv-x="1118" d="M887 1399h-256l-375 -520v520h-205v-1431h205v518l375 -518h256l-537 715zM1091 1309l-565 -754l565 -753h-350l-123 123h-7l-189 261v-384h-280l-123 123h-10v1517h290v-10l123 -123v-128l187 261h364l-7 -8z" />
<glyph unicode="l" horiz-adv-x="981" d="M256 171v1228h-205v-1431h671l-26 203h-440zM858 80l35 -278h-751l-123 123h-10v1517h290v-10l123 -123v-1096h314l1 -12z" />
<glyph unicode="m" horiz-adv-x="1343" d="M785 1399l-241 -991l-242 991h-270l-66 -1431h225l38 909l216 -909h197l216 909l38 -909h227l-68 1431h-270zM1219 1309l71 -1507h-302l-123 123h-10l-5 97l-51 -220h-255l-122 123h-11l-44 183l-12 -306h-300l-123 123h-11l70 1517h345l4 -14l119 -119l130 -536l162 669 h345v-12z" />
<glyph unicode="n" horiz-adv-x="1161" d="M649 1399v-928l-405 928h-193v-1431h205v926l404 -926h193v1431h-204zM1019 1309v-1507h-254l-123 123h-9l-211 485v-608h-280l-123 123h-10v1517h262l7 -15l118 -118l210 -481v614h290v-10z" />
<glyph unicode="o" horiz-adv-x="1536" d="M1271 683q0 295 -165 498q-176 218 -464 218q-289 0 -468 -218q-165 -203 -165 -498q0 -297 165 -499q178 -216 468 -216q288 0 464 216q165 202 165 499zM1067 683q0 -210 -106 -352q-118 -160 -319 -160q-202 0 -321 158q-108 144 -108 354t108 353q118 159 321 159 q200 0 319 -161q106 -142 106 -351zM244 55q-27 22 -53 47.5t-49 54.5q-91 109 -133.5 239t-42.5 287t42.5 286.5t133.5 238.5q192 234 500 234q307 0 496 -234q2 -2 3.5 -4.5t3.5 -3.5l68 -68q14 -14 26.5 -27.5t23.5 -27.5q174 -213 174 -522q0 -310 -174 -523 q-97 -115 -216.5 -172.5t-276.5 -57.5q-269 0 -451 179zM1024 683q0 88 -21.5 166t-63.5 141q-38 19 -79.5 29t-89.5 10q-94 0 -164.5 -35.5t-125.5 -107.5q-101 -137 -101 -331q0 -169 73 -290q79 -52 190 -52q181 0 285 144q97 133 97 326z" />
<glyph unicode="p" horiz-adv-x="1203" d="M939 990q0 171 -110 290t-281 119h-497v-1431h205v612h292q172 0 281 121q110 116 110 289zM734 990q0 -88 -51 -146q-50 -59 -135 -59h-292v410h292q85 0 135 -59q51 -59 51 -146zM983 1178q121 -130 121 -316q0 -189 -119 -314q-120 -133 -309 -133h-254v-613h-280 l-123 123h-10v1517h539q190 0 310 -133q11 -11 19.5 -22t16.5 -22l82 -82q4 -4 7 -5zM691 990q0 9 -1 18.5t-2 18.5q-8 2 -12 2h-254v-201h126q33 0 59 12.5t45 34t29 51t10 64.5zM770 993q0 2 -2 2z" />
<glyph unicode="q" horiz-adv-x="1536" d="M1075 148q196 211 196 535q0 295 -165 498q-176 218 -464 218q-289 0 -468 -218q-165 -203 -165 -498q0 -297 165 -499q178 -216 468 -216q145 0 268 58l244 -243l145 145zM1067 683q0 -237 -137 -389l-304 303l-145 -143l270 -270q-48 -13 -109 -13q-202 0 -321 158 q-108 144 -108 354q0 207 108 353q118 159 321 159q200 0 319 -161q106 -142 106 -351zM244 55q-27 22 -53 47.5t-49 54.5q-91 109 -133.5 239t-42.5 287t42.5 286.5t133.5 238.5q192 234 500 234q307 0 496 -234q2 -2 3.5 -4.5t3.5 -3.5l68 -68q14 -14 26.5 -27.5 t23.5 -27.5q174 -213 174 -522q0 -313 -177 -529l100 -98l-3 -3l124 -125l-199 -199l-125 124l-3 -3l-132 130q-124 -50 -252 -50q-269 0 -451 179zM1024 683q0 88 -21.5 166t-63.5 141q-38 19 -79.5 29t-89.5 10q-94 0 -164.5 -35.5t-125.5 -107.5q-101 -137 -101 -331 q0 -85 17 -157t55 -132q80 -53 191 -53h18l-240 241l208 203l299 -299q97 134 97 325z" />
<glyph unicode="r" horiz-adv-x="1203" d="M548 580q172 0 281 121q110 116 110 289q0 171 -110 290t-281 119h-497v-1431h205v553l466 -553h256l-515 612h85zM734 990q0 -88 -51 -146q-50 -59 -135 -59h-292v410h292q85 0 135 -59q51 -59 51 -146zM983 1178q121 -130 121 -316q0 -189 -119 -314 q-120 -133 -309 -133h-5l515 -613h-353l-123 123h-7l-281 333v-456h-280l-123 123h-10v1517h539q190 0 310 -133q11 -11 19.5 -22t16.5 -22l82 -82q4 -4 7 -5zM691 990q0 9 -1 18.5t-2 18.5q-8 2 -12 2h-254v-201h126q33 0 59 12.5t45 34t29 51t10 64.5z" />
<glyph unicode="s" horiz-adv-x="1215" d="M908 939q2 203 -111 329q-119 131 -317 131q-188 0 -307 -119q-118 -118 -118 -307q0 -176 167 -278q12 -11 310 -135q168 -71 168 -167q0 -106 -57 -164t-163 -58q-227 0 -224 256h-205q-2 -203 111 -330q118 -129 318 -129q187 0 306 117q119 119 119 308 q0 174 -168 278q-10 7 -310 133q-168 70 -168 169q0 106 57.5 164t163.5 58q227 0 223 -256h205zM200 5q-18 14 -35.5 29.5t-33.5 33.5q-122 137 -122 350v51h290v-10l123 -123v-42q0 -22 1 -40.5t5 -35.5q12 -2 25 -3.5t27 -1.5q85 0 131 47.5t46 132.5q-4 1 -6.5 1.5 t-5.5 3.5q-289 121 -319 138l3 -2q-24 16 -45.5 32.5t-39.5 34.5l-80 80q-152 110 -152 292q0 208 130 338q131 131 338 131q218 0 348 -145q8 -9 15 -19t15 -18l87 -89q4 -4 7 -5q121 -133 121 -347v-46h-279l-123 123h-11v48q0 23 -2 42.5t-6 37.5q-13 2 -23.5 3.5 t-20.5 1.5q-85 0 -133 -47t-50 -132q7 -4 17 -7q157 -64 238 -100.5t86 -39.5q42 -27 74 -57.5t54 -65.5l58 -58l2 -1l14 -12q51 -51 76.5 -111t25.5 -133q0 -208 -131 -333l1 -2q-128 -128 -332 -128q-203 0 -328 125l-5 5q-3 2 -6.5 5t-5.5 7zM952 522q2 0 2 -1z" />
<glyph unicode="t" horiz-adv-x="1161" d="M3 1195h347v-1227h205v1227h321l25 204h-872zM947 1432l125 -123l-34 -280h-318v-1227h-280l-123 123h-10v1104h-218l-123 123h-10l34 290h959z" />
<glyph unicode="u" horiz-adv-x="1280" d="M768 1399v-972q0 -104 -75 -180t-179 -76q-105 0 -181 76q-77 77 -77 180v972h-205v-972q0 -190 136 -325q137 -134 327 -134q187 0 324 134q135 135 135 325v972h-205zM1138 1309v-1010q0 -208 -145 -352q-145 -145 -351 -145q-209 0 -354 145l-78 77q-14 11 -27 23 t-26 25q-75 75 -111.5 162t-36.5 193v1015h290v-10l123 -123v-1010q0 -41 10 -70q32 -16 82 -16q85 0 157 72v-2q27 31 40.5 65t13.5 79v1015h290v-10z" />
<glyph unicode="v" horiz-adv-x="1109" d="M427 379l-258 1020h-212l372 -1431h193l376 1431h-214zM949 1432l124 -123l-394 -1507h-251l-123 123h-8l-394 1517h298l2 -12l123 -121l145 -580l181 713h300z" />
<glyph unicode="w" horiz-adv-x="1343" d="M753 474l-108 925h-203l-107 -925l-164 925h-210l246 -1431h269l68 636l67 -636h270l247 1431h-212zM1178 1432l122 -123l-259 -1507h-336l-60 60l-7 -60h-336l-123 123h-10l-259 1517h298l2 -14l121 -119l34 -193l38 326h281l2 -12l121 -121l19 -169l53 302h300z" />
<glyph unicode="x" horiz-adv-x="1109" d="M864 1399h-229l-208 -493l-209 493h-227l321 -716l-321 -715h227l209 491l208 -491h229l-323 715zM1050 1309l-340 -754l340 -753h-311l-123 123h-8l-94 217l-144 -340h-309l-122 123h-14l341 758l-341 759h322l6 -15l119 -118l87 -213l147 346h324l-5 -10z" />
<glyph unicode="y" horiz-adv-x="1024" d="M384 855l-207 544h-226l331 -808v-623h204v623l333 808h-228zM877 1432l125 -123l-350 -852v-655h-280l-123 123h-10v659l-352 858h321l5 -14l120 -119l87 -234l140 367h322z" />
<glyph unicode="z" horiz-adv-x="1109" d="M38 1195h505l-552 -1227h825l-26 203h-479l553 1228h-801zM925 1432l125 -123l-495 -1096h274l2 -12l121 -121l34 -278h-925l-122 123h-14l495 1104h-297l-123 123h-10l34 290h906z" />
<glyph unicode="{" horiz-adv-x="973" d="M495 0q-34 0 -34 34v512q0 87 -48 137q48 49 48 136v512q0 34 34 34h171v205h-239q-70 0 -121 -51q-50 -50 -50 -120v-580q0 -34 -34 -34h-171v-205h171q34 0 34 -34v-578q0 -70 50 -120q51 -51 121 -51h239v203h-171zM831 -90v-279h-276q-45 0 -82 16.5t-65 45.5l-92 92 q-48 29 -75.5 77t-27.5 106v447h-71l-123 123h-10v290h204v571q0 44 17 83t46 68t68 46t83 17h281v-10l123 -123v-280h-205v-509q0 -42 -9 -75.5t-26 -60.5q35 -56 35 -137v-375h82v-11zM493 34q0 -2 2 -2v2h-2zM495 1333q-2 0 -2 -1v-1h2v2zM224 546l-2 2v-2h2z" />
<glyph unicode="|" d="M51 1570v-1773h205v1773h-205zM422 1480v-1849h-280l-123 123h-10v1859h290v-10z" />
<glyph unicode="}" horiz-adv-x="973" d="M495 785q-34 0 -34 34v580q0 70 -51 120q-50 51 -120 51h-239v-205h171q34 0 34 -34v-512q0 -87 48 -136q-48 -50 -48 -137v-512q0 -34 -34 -34h-171v-203h239q70 0 120 51q51 49 51 120v578q0 34 34 34h171v205h-171zM831 695v-280h-205v-575q0 -43 -16.5 -81t-45 -66.5 t-66 -45t-80.5 -16.5h-276l-123 123h-10v289h204v503q0 77 36 137q-36 55 -36 136v381h-71l-123 123h-10v290h281q58 0 106 -27.5t77 -75.5l92 -92q28 -28 44.5 -66t16.5 -81v-443h82v-11zM493 819q0 -2 2 -2v2h-2zM495 548q-2 0 -2 -1v-1h2v2zM224 1331l-2 2v-2h2z" />
<glyph unicode="~" horiz-adv-x="1041" d="M734 1365q-161 -170 -239 -170q-27 0 -89 59q-60 60 -116 60q-107 0 -239 -140v-269q161 170 239 170q29 0 89 -60q62 -59 116 -59q107 0 239 140v269zM899 1331v-379q-149 -162 -276 -162q-73 0 -143 70l-19 17q-33 33 -43 33q-61 0 -276 -227l-125 124q-2 -2 -4.5 -4 t-3.5 -4v392q153 166 281 166q75 0 147 -72q48 -48 58 -48q63 0 282 234v-17z" />
<glyph unicode="&#xa1;" d="M51 1229v-205h205v205h-205zM68 956l-17 -1159h205l-17 1159h-171zM422 1138v-280h-18l18 -1227h-280l-123 123h-10l17 1221l-7 6h-10v290h290v-10z" />
<glyph unicode="&#xa2;" horiz-adv-x="1236" d="M766 560q-92 -113 -210 -116l157 694q13 -10 26.5 -24.5t28.5 -34.5l176 102q-85 121 -183 169l50 220h-190l-39 -172q-244 13 -394 -164q-137 -167 -137 -415q0 -161 68 -305q38 -78 90.5 -134.5t121.5 -91.5l-49 -220h189l39 173q265 -17 434 215zM379 502 q-123 102 -123 317q0 149 67 249q77 123 213 127zM229 26l49 230l-36 38q-51 38 -91 87t-69 112q-38 76 -55.5 157t-17.5 169q0 263 146 442q78 91 175 136t218 45l39 171h277l-4 -10l125 -123l-51 -224q5 -5 9 -10t9 -10l58 -57q-1 1 -2.5 2t-3.5 3l15 -13q26 -26 52.5 -59 t54.5 -71l-239 -138l-27 25l-75 -331l222 -129q-2 -2 -2.5 -3.5t-2.5 -3.5l124 -123q-97 -133 -209.5 -199t-245.5 -66h-4l-39 -170h-264l-123 123h-12z" />
<glyph unicode="&#xa4;" horiz-adv-x="1369" d="M947 439q70 109 70 244t-70 244l128 129l-145 145l-130 -128q-109 70 -244 70t-244 -70l-129 128l-145 -145l128 -129q-70 -109 -70 -244t70 -244l-128 -130l145 -145l129 128q109 -70 244 -70t244 70l130 -128l145 145zM812 683q0 -106 -75 -181t-181 -75 q-105 0 -181 75q-75 75 -75 181q0 105 75 180q76 76 181 76q106 0 181 -76q75 -75 75 -180zM181 104l-203 203l133 137q-58 112 -58 239t58 239l-133 136l203 203l136 -135q114 60 239 60t239 -60l137 135l203 -203l-3 -3l124 -125l-133 -136q29 -54 44.5 -113.5 t15.5 -125.5t-15.5 -125t-44.5 -113l12 -10l-2 -2l123 -126l-196 -196l-126 123l-2 -2l-12 10q-106 -58 -236 -58q-66 0 -125.5 15.5t-113.5 44.5l-136 -133l-125 125zM770 683q0 46 -16 78q-17 5 -34.5 8.5t-35.5 3.5q-44 0 -83.5 -18t-69.5 -48t-47.5 -69.5t-17.5 -82.5 q0 -20 2 -36.5t8 -33.5q32 -16 80 -16q43 0 81.5 16.5t69.5 46.5q63 63 63 151z" />
<glyph unicode="&#xa5;" horiz-adv-x="1024" d="M384 855l-207 544h-226l331 -808v-623h204v623l333 808h-228zM877 1432l125 -123l-350 -852v-655h-280l-123 123h-10v659l-352 858h321l5 -14l120 -119l87 -234l140 367h322z" />
<glyph unicode="&#xa6;" d="M51 1570v-853h205v853h-205zM51 649v-852h205v852h-205zM422 1480v-1849h-280l-123 123h-10v1859h290v-10z" />
<glyph unicode="&#xa8;" horiz-adv-x="836" d="M324 1621v-204h205v204h-205zM51 1621v-204h205v204h-205zM695 1531v-280h-553l-123 123h-10v290h563v-10z" />
<glyph unicode="&#xa9;" horiz-adv-x="1536" d="M1271 683q0 295 -165 498q-176 218 -464 218q-289 0 -468 -218q-165 -203 -165 -498q0 -297 165 -499q178 -216 468 -216q288 0 464 216q165 202 165 499zM1067 683q0 -210 -106 -352q-118 -160 -319 -160q-202 0 -321 158q-108 144 -108 354q0 207 108 353 q118 159 321 159q200 0 319 -161q106 -142 106 -351zM838 601q-55 -157 -186 -157q-94 0 -149 75q-49 64 -49 164q0 97 49 164q55 75 149 75q130 0 186 -156l135 24q-88 268 -321 268q-152 0 -246 -114q-89 -110 -89 -261q0 -154 89 -261q94 -115 246 -115q232 0 321 266z M244 55q-27 22 -53 47.5t-49 54.5q-91 109 -133.5 239t-42.5 287t42.5 286.5t133.5 238.5q192 234 500 234q307 0 496 -234q2 -2 3.5 -4.5t3.5 -3.5l68 -68q14 -14 26.5 -27.5t23.5 -27.5q174 -213 174 -522q0 -310 -174 -523q-97 -115 -216.5 -172.5t-276.5 -57.5 q-269 0 -451 179zM620 555q0 -20 1 -35.5t5 -31.5q5 -1 8 -1.5t4 -0.5h14q99 0 159 166l95 -21l-87 88l-8 -2q-4 10 -8 19l-8 18q-5 0 -8 1t-7 1q-78 0 -118 -60q-20 -28 -31 -63.5t-11 -77.5zM442 328q-9 6 -17 13.5t-17 15.5q9 -25 19.5 -47.5t24.5 -44.5q44 -29 98 -41 q-5 4 -9.5 8.5l-9.5 9.5zM1015 608h4h-4z" />
<glyph unicode="&#xab;" horiz-adv-x="1161" d="M879 802h-258l-225 -375l225 -376h258l-225 376zM529 802h-258l-225 -375l225 -376h258l-225 376zM956 845l-7 -10l124 -123l-249 -413l249 -413h-344l-14 13l9 -13h-345l-123 123h-9l-252 418l252 418h709z" />
<glyph unicode="&#xad;" horiz-adv-x="939" d="M9 828v-290h10l123 -123h655v280l-123 122v11h-665zM51 580v205h580v-205h-580zM840 737v-30l123 -123v-335h-710l-123 123h-31l-123 123h-10v375h751v-10z" />
<glyph unicode="&#xae;" horiz-adv-x="1536" d="M1271 683q0 295 -165 498q-176 218 -464 218q-289 0 -468 -218q-165 -203 -165 -498q0 -297 165 -499q178 -216 468 -216q288 0 464 216q165 202 165 499zM1067 683q0 -210 -106 -352q-118 -160 -319 -160q-202 0 -321 158q-108 144 -108 354q0 207 108 353 q118 159 321 159q200 0 319 -161q106 -142 106 -351zM660 614q95 0 157 62q62 65 62 160q0 92 -60 157t-152 65h-266v-751h137v248l208 -248h172zM742 836q0 -85 -75 -85h-129v171h129q75 0 75 -86zM244 55q-27 22 -53 47.5t-49 54.5q-91 109 -133.5 239t-42.5 287 t42.5 286.5t133.5 238.5q192 234 500 234q307 0 496 -234q2 -2 3.5 -4.5t3.5 -3.5l68 -68q14 -14 26.5 -27.5t23.5 -27.5q174 -213 174 -522q0 -310 -174 -523q-97 -115 -216.5 -172.5t-276.5 -57.5q-269 0 -451 179zM1015 582q-23 -46 -62 -78.5t-93 -46.5l75 -88 q31 46 51.5 99.5t28.5 113.5zM969 898q21 -23 29 -36q-10 35 -25 67t-34 61q-20 10 -42 18t-45 13q6 -7 12.5 -14t11.5 -15zM703 217q16 2 32 6t30 9l-31 33h-7l-24 27v-75z" />
<glyph unicode="&#xaf;" horiz-adv-x="939" d="M9 1664v-290h10l123 -123h655v280l-123 123v10h-665zM51 1417v204h580v-204h-580zM840 1574v-31l123 -123v-335h-710l-123 123h-31l-123 123h-10v376h751v-11z" />
<glyph unicode="&#xb0;" horiz-adv-x="768" d="M461 1195q0 83 -61 143q-60 61 -144 61t-145 -61q-60 -60 -60 -143q0 -84 60 -145q61 -60 145 -60t144 60q61 61 61 145zM307 1195q0 -52 -51 -52t-51 52q0 51 51 51t51 -51zM116 988q-10 8 -19 15.5t-17 15.5q-35 37 -53 79.5t-18 96.5q0 103 71 174q38 37 80 55t96 18 q102 0 172 -73q12 -12 21.5 -23.5t18.5 -24.5l90 -89q33 -33 50.5 -73.5t17.5 -91.5q0 -52 -18 -94.5t-53 -78.5q-70 -70 -171 -70q-102 0 -172 70z" />
<glyph unicode="&#xb1;" horiz-adv-x="939" d="M444 785v188h-205v-188h-188v-205h188v-187h205v187h187v205h-187zM51 171v-203h580v203h-580zM797 695v-280h-188v-188h-280l-122 123h-11v65h-54l-123 123h-10v290h187v187h290v-10l123 -123v-54h65v-11zM797 80v-278h-655l-123 123h-10v288h665v-10z" />
<glyph unicode="&#xb4;" horiz-adv-x="700" d="M38 1417h170l208 375h-252zM483 1826l125 -124l-250 -451h-245l-123 123h-12l155 461h355z" />
<glyph unicode="&#xb6;" horiz-adv-x="1415" d="M442 1399q-171 0 -281 -119t-110 -290q0 -161 99 -279q99 -117 258 -129v-785h205v1398h102v-1398h205v1398h167l26 204h-671zM1159 1432l124 -123l-34 -280h-164v-1398h-279l-28 28v-28h-280l-123 123h-10v709q-48 26 -89 68l-81 80q-22 15 -40.5 33t-36.5 40 q-57 66 -83 140.5t-26 165.5q0 186 121 319q60 69 137.5 101t174.5 32h719z" />
<glyph unicode="&#xb7;" d="M9 828v-290h10l123 -123h280v280l-123 122v11h-290zM51 580v205h205v-205h-205zM464 737v-30l123 -123v-335h-334l-123 123h-31l-123 123h-10v375h375v-10z" />
<glyph unicode="&#xbb;" horiz-adv-x="1161" d="M375 802l226 -375l-226 -376h258l225 376l-225 375h-258zM26 802l225 -375l-225 -376h257l226 376l-226 375h-257zM782 712l249 -413l-249 -413h-345l-4 3l-1 -3h-345l-123 123h-15l251 418l-251 418h708l12 -22z" />
<glyph unicode="&#xbf;" horiz-adv-x="1215" d="M526 1229v-205h204v205h-204zM700 256q3 -256 -224 -256q-103 0 -161.5 59.5t-58.5 162.5q0 112 123 201q222 159 229 166q122 125 122 324v43h-204v-11q0 -90 -29 -153q-14 -29 -41 -58.5t-65 -59.5q-42 -30 -83 -60t-83 -59q-87 -67 -124 -130q-50 -86 -50 -203 q0 -188 118 -306q119 -119 307 -119t308 117q121 117 121 303v39h-205zM896 1138v-353q0 -213 -133 -352q-4 -4 -61.5 -45.5t-172.5 -122.5q-107 -80 -107 -171q0 -13 0.5 -24.5t2.5 -21.5q11 -3 24 -4t27 -1q181 0 181 208v48h290v-11l123 -122v-77q0 -201 -133 -330 q-131 -128 -333 -128q-204 0 -334 130l-81 80q-27 21 -51 45q-129 129 -129 336q0 128 54 223q37 68 137 142q9 7 18 13t18 14q6 5 11.5 9.5t11.5 9.5q17 12 33.5 24.5t33.5 23.5l18 12t20 14q34 27 56.5 52t36.5 52.5t20 60t6 73.5v326h290v-10z" />
<glyph unicode="&#xc0;" horiz-adv-x="1109" d="M329 1399l-372 -1431h212l87 339h341l87 -339h214l-376 1431h-193zM427 993l128 -481h-256zM679 1309l394 -1507h-290l-123 123h-8l-56 217h-185l-85 -340h-288l-123 123h-12l394 1517h258l3 -12zM232 1792l209 -375h170l-126 375h-253zM640 1702l152 -451h-246l-123 123 h-8l-254 461h355l3 -14z" />
<glyph unicode="&#xc1;" horiz-adv-x="1109" d="M243 1417h170l208 375h-252zM688 1826l125 -124l-250 -451h-245l-123 123h-12l155 461h355zM329 1399l-372 -1431h212l87 339h341l87 -339h214l-376 1431h-193zM427 993l128 -481h-256zM679 1309l394 -1507h-290l-123 123h-8l-56 217h-185l-85 -340h-288l-123 123h-12 l394 1517h258l3 -12z" />
<glyph unicode="&#xc2;" horiz-adv-x="1109" d="M329 1399l-372 -1431h212l87 339h341l87 -339h214l-376 1431h-193zM427 993l128 -481h-256zM679 1309l394 -1507h-290l-123 123h-8l-56 217h-185l-85 -340h-288l-123 123h-12l394 1517h258l3 -12zM307 1741l-237 -324h237l119 165l120 -165h237l-237 324h-239zM693 1650 l293 -399h-333l-116 114l-82 -114h-332l-123 123h-16l303 409h279l19 -25z" />
<glyph unicode="&#xc3;" horiz-adv-x="1109" d="M716 1778q-141 -157 -204 -157q-21 0 -72 51q-49 52 -99 52q-93 0 -205 -123v-239q144 157 205 157q21 0 71 -51q49 -51 100 -51q94 0 204 122v239zM882 1748v-350q-131 -147 -242 -147q-31 0 -61 13.5t-59 42.5l-37 38q-11 8 -14 8q-45 0 -242 -215l-125 125 q-2 -2 -4.5 -4t-3.5 -5v362q139 150 247 150q31 0 61.5 -13.5t59.5 -42.5v2q48 -48 50 -48q41 0 247 225v-18zM329 1399l-372 -1431h212l87 339h341l87 -339h214l-376 1431h-193zM427 993l128 -481h-256zM679 1309l394 -1507h-290l-123 123h-8l-56 217h-185l-85 -340h-288 l-123 123h-12l394 1517h258l3 -12z" />
<glyph unicode="&#xc4;" horiz-adv-x="1109" d="M329 1399l-372 -1431h212l87 339h341l87 -339h214l-376 1431h-193zM427 993l128 -481h-256zM679 1309l394 -1507h-290l-123 123h-8l-56 217h-185l-85 -340h-288l-123 123h-12l394 1517h258l3 -12zM461 1621v-204h205v204h-205zM188 1621v-204h205v204h-205zM832 1531 v-280h-553l-123 123h-10v290h563v-10z" />
<glyph unicode="&#xc5;" horiz-adv-x="1109" d="M632 1621q0 84 -61 144q-60 61 -144 61t-145 -61q-60 -60 -60 -144q0 -83 60 -144q61 -60 145 -60t144 60q61 61 61 144zM478 1621q0 -51 -51 -51t-51 51q0 52 51 52t51 -52zM287 1415q-9 6 -18 14t-18 17q-35 37 -53 79t-18 96q0 103 71 174q38 38 80 56t96 18 q101 0 172 -74q12 -11 21.5 -22.5t18.5 -24.5l90 -89q33 -33 50.5 -74t17.5 -92t-18 -93.5t-53 -78.5q-70 -70 -171 -70q-102 0 -172 70zM329 1399l-372 -1431h212l87 339h341l87 -339h214l-376 1431h-193zM427 993l128 -481h-256zM679 1309l394 -1507h-290l-123 123h-8 l-56 217h-185l-85 -340h-288l-123 123h-12l394 1517h258l3 -12z" />
<glyph unicode="&#xc6;" horiz-adv-x="1650" d="M882 171v409h296l-26 205h-270v410h441l25 204h-670v-614l-154 614h-195l-372 -1431h212l87 339h341l87 -339h664l-25 203h-441zM427 993l128 -481h-256zM1485 80l34 -278h-736l-123 123h-8l-56 217h-185l-85 -340h-288l-123 123h-12l394 1517h261l3 -14l74 -73v87h761 l-2 -10l125 -123l-34 -280h-437v-201h143l2 -12l121 -121l34 -280h-300v-202h314l2 -12z" />
<glyph unicode="&#xc8;" horiz-adv-x="1024" d="M189 1792l209 -375h170l-126 375h-253zM597 1702l152 -451h-246l-123 123h-8l-254 461h355l3 -14zM256 171v409h295l-25 205h-270v410h440l26 204h-671v-1431h671l-26 203h-440zM858 80l35 -278h-751l-123 123h-10v1517h761l-2 -10l125 -123l-35 -280h-436v-201h143 l2 -12l121 -121l34 -280h-300v-202h314l1 -12z" />
<glyph unicode="&#xc9;" horiz-adv-x="1024" d="M256 171v409h295l-25 205h-270v410h440l26 204h-671v-1431h671l-26 203h-440zM858 80l35 -278h-751l-123 123h-10v1517h761l-2 -10l125 -123l-35 -280h-436v-201h143l2 -12l121 -121l34 -280h-300v-202h314l1 -12zM200 1417h170l208 375h-252zM645 1826l125 -124 l-250 -451h-245l-123 123h-12l155 461h355z" />
<glyph unicode="&#xca;" horiz-adv-x="1024" d="M265 1741l-237 -324h237l119 165l120 -165h237l-237 324h-239zM651 1650l293 -399h-333l-116 114l-82 -114h-332l-123 123h-16l303 409h279l19 -25zM256 171v409h295l-25 205h-270v410h440l26 204h-671v-1431h671l-26 203h-440zM858 80l35 -278h-751l-123 123h-10v1517 h761l-2 -10l125 -123l-35 -280h-436v-201h143l2 -12l121 -121l34 -280h-300v-202h314l1 -12z" />
<glyph unicode="&#xcb;" horiz-adv-x="1024" d="M256 171v409h295l-25 205h-270v410h440l26 204h-671v-1431h671l-26 203h-440zM858 80l35 -278h-751l-123 123h-10v1517h761l-2 -10l125 -123l-35 -280h-436v-201h143l2 -12l121 -121l34 -280h-300v-202h314l1 -12zM418 1621v-204h205v204h-205zM145 1621v-204h205v204 h-205zM789 1531v-280h-553l-123 123h-10v290h563v-10z" />
<glyph unicode="&#xcc;" d="M-38 1792l209 -375h170l-126 375h-253zM370 1702l152 -451h-246l-123 123h-8l-254 461h355l3 -14zM51 1399v-1431h205v1431h-205zM422 1309v-1507h-280l-123 123h-10v1517h290v-10z" />
<glyph unicode="&#xcd;" d="M51 1399v-1431h205v1431h-205zM422 1309v-1507h-280l-123 123h-10v1517h290v-10zM-26 1417h170l208 375h-252zM419 1826l125 -124l-250 -451h-245l-123 123h-12l155 461h355z" />
<glyph unicode="&#xce;" d="M37 1741l-237 -324h237l119 165l120 -165h237l-237 324h-239zM423 1650l293 -399h-333l-116 114l-82 -114h-332l-123 123h-16l303 409h279l19 -25zM51 1399v-1431h205v1431h-205zM422 1309v-1507h-280l-123 123h-10v1517h290v-10z" />
<glyph unicode="&#xcf;" d="M190 1621v-204h205v204h-205zM-83 1621v-204h205v204h-205zM561 1531v-280h-553l-123 123h-10v290h563v-10zM51 1399v-1431h205v1431h-205zM422 1309v-1507h-280l-123 123h-10v1517h290v-10z" />
<glyph unicode="&#xd1;" horiz-adv-x="1161" d="M649 1399v-928l-405 928h-193v-1431h205v926l404 -926h193v1431h-204zM1019 1309v-1507h-254l-123 123h-9l-211 485v-608h-280l-123 123h-10v1517h262l7 -15l118 -118l210 -481v614h290v-10zM742 1778q-141 -157 -204 -157q-21 0 -72 51q-49 52 -99 52q-93 0 -205 -123 v-239q144 157 205 157q21 0 71 -51q49 -51 100 -51q94 0 204 122v239zM908 1748v-350q-131 -147 -242 -147q-31 0 -61 13.5t-59 42.5l-37 38q-11 8 -14 8q-45 0 -242 -215l-125 125q-2 -2 -4.5 -4t-3.5 -5v362q139 150 247 150q31 0 61.5 -13.5t59.5 -42.5v2q48 -48 50 -48 q41 0 247 225v-18z" />
<glyph unicode="&#xd2;" horiz-adv-x="1536" d="M445 1792l209 -375h170l-126 375h-253zM853 1702l152 -451h-246l-123 123h-8l-254 461h355l3 -14zM1271 683q0 295 -165 498q-176 218 -464 218q-289 0 -468 -218q-165 -203 -165 -498q0 -297 165 -499q178 -216 468 -216q288 0 464 216q165 202 165 499zM1067 683 q0 -210 -106 -352q-118 -160 -319 -160q-202 0 -321 158q-108 144 -108 354t108 353q118 159 321 159q200 0 319 -161q106 -142 106 -351zM244 55q-27 22 -53 47.5t-49 54.5q-91 109 -133.5 239t-42.5 287t42.5 286.5t133.5 238.5q192 234 500 234q307 0 496 -234 q2 -2 3.5 -4.5t3.5 -3.5l68 -68q14 -14 26.5 -27.5t23.5 -27.5q174 -213 174 -522q0 -310 -174 -523q-97 -115 -216.5 -172.5t-276.5 -57.5q-269 0 -451 179zM1024 683q0 88 -21.5 166t-63.5 141q-38 19 -79.5 29t-89.5 10q-94 0 -164.5 -35.5t-125.5 -107.5 q-101 -137 -101 -331q0 -169 73 -290q79 -52 190 -52q181 0 285 144q97 133 97 326z" />
<glyph unicode="&#xd3;" horiz-adv-x="1536" d="M456 1417h170l208 375h-252zM901 1826l125 -124l-250 -451h-245l-123 123h-12l155 461h355zM1271 683q0 295 -165 498q-176 218 -464 218q-289 0 -468 -218q-165 -203 -165 -498q0 -297 165 -499q178 -216 468 -216q288 0 464 216q165 202 165 499zM1067 683 q0 -210 -106 -352q-118 -160 -319 -160q-202 0 -321 158q-108 144 -108 354t108 353q118 159 321 159q200 0 319 -161q106 -142 106 -351zM244 55q-27 22 -53 47.5t-49 54.5q-91 109 -133.5 239t-42.5 287t42.5 286.5t133.5 238.5q192 234 500 234q307 0 496 -234 q2 -2 3.5 -4.5t3.5 -3.5l68 -68q14 -14 26.5 -27.5t23.5 -27.5q174 -213 174 -522q0 -310 -174 -523q-97 -115 -216.5 -172.5t-276.5 -57.5q-269 0 -451 179zM1024 683q0 88 -21.5 166t-63.5 141q-38 19 -79.5 29t-89.5 10q-94 0 -164.5 -35.5t-125.5 -107.5 q-101 -137 -101 -331q0 -169 73 -290q79 -52 190 -52q181 0 285 144q97 133 97 326z" />
<glyph unicode="&#xd4;" horiz-adv-x="1536" d="M521 1741l-237 -324h237l119 165l120 -165h237l-237 324h-239zM907 1650l293 -399h-333l-116 114l-82 -114h-332l-123 123h-16l303 409h279l19 -25zM1271 683q0 295 -165 498q-176 218 -464 218q-289 0 -468 -218q-165 -203 -165 -498q0 -297 165 -499q178 -216 468 -216 q288 0 464 216q165 202 165 499zM1067 683q0 -210 -106 -352q-118 -160 -319 -160q-202 0 -321 158q-108 144 -108 354t108 353q118 159 321 159q200 0 319 -161q106 -142 106 -351zM244 55q-27 22 -53 47.5t-49 54.5q-91 109 -133.5 239t-42.5 287t42.5 286.5t133.5 238.5 q192 234 500 234q307 0 496 -234q2 -2 3.5 -4.5t3.5 -3.5l68 -68q14 -14 26.5 -27.5t23.5 -27.5q174 -213 174 -522q0 -310 -174 -523q-97 -115 -216.5 -172.5t-276.5 -57.5q-269 0 -451 179zM1024 683q0 88 -21.5 166t-63.5 141q-38 19 -79.5 29t-89.5 10 q-94 0 -164.5 -35.5t-125.5 -107.5q-101 -137 -101 -331q0 -169 73 -290q79 -52 190 -52q181 0 285 144q97 133 97 326z" />
<glyph unicode="&#xd5;" horiz-adv-x="1536" d="M1271 683q0 295 -165 498q-176 218 -464 218q-289 0 -468 -218q-165 -203 -165 -498q0 -297 165 -499q178 -216 468 -216q288 0 464 216q165 202 165 499zM1067 683q0 -210 -106 -352q-118 -160 -319 -160q-202 0 -321 158q-108 144 -108 354t108 353q118 159 321 159 q200 0 319 -161q106 -142 106 -351zM244 55q-27 22 -53 47.5t-49 54.5q-91 109 -133.5 239t-42.5 287t42.5 286.5t133.5 238.5q192 234 500 234q307 0 496 -234q2 -2 3.5 -4.5t3.5 -3.5l68 -68q14 -14 26.5 -27.5t23.5 -27.5q174 -213 174 -522q0 -310 -174 -523 q-97 -115 -216.5 -172.5t-276.5 -57.5q-269 0 -451 179zM1024 683q0 88 -21.5 166t-63.5 141q-38 19 -79.5 29t-89.5 10q-94 0 -164.5 -35.5t-125.5 -107.5q-101 -137 -101 -331q0 -169 73 -290q79 -52 190 -52q181 0 285 144q97 133 97 326zM930 1778q-141 -157 -204 -157 q-21 0 -72 51q-49 52 -99 52q-93 0 -205 -123v-239q144 157 205 157q21 0 71 -51q49 -51 100 -51q94 0 204 122v239zM1096 1748v-350q-131 -147 -242 -147q-31 0 -61 13.5t-59 42.5l-37 38q-11 8 -14 8q-45 0 -242 -215l-125 125q-2 -2 -4.5 -4t-3.5 -5v362q139 150 247 150 q31 0 61.5 -13.5t59.5 -42.5v2q48 -48 50 -48q41 0 247 225v-18z" />
<glyph unicode="&#xd6;" horiz-adv-x="1536" d="M1271 683q0 295 -165 498q-176 218 -464 218q-289 0 -468 -218q-165 -203 -165 -498q0 -297 165 -499q178 -216 468 -216q288 0 464 216q165 202 165 499zM1067 683q0 -210 -106 -352q-118 -160 -319 -160q-202 0 -321 158q-108 144 -108 354t108 353q118 159 321 159 q200 0 319 -161q106 -142 106 -351zM244 55q-27 22 -53 47.5t-49 54.5q-91 109 -133.5 239t-42.5 287t42.5 286.5t133.5 238.5q192 234 500 234q307 0 496 -234q2 -2 3.5 -4.5t3.5 -3.5l68 -68q14 -14 26.5 -27.5t23.5 -27.5q174 -213 174 -522q0 -310 -174 -523 q-97 -115 -216.5 -172.5t-276.5 -57.5q-269 0 -451 179zM1024 683q0 88 -21.5 166t-63.5 141q-38 19 -79.5 29t-89.5 10q-94 0 -164.5 -35.5t-125.5 -107.5q-101 -137 -101 -331q0 -169 73 -290q79 -52 190 -52q181 0 285 144q97 133 97 326zM674 1621v-204h205v204h-205z M401 1621v-204h205v204h-205zM1045 1531v-280h-553l-123 123h-10v290h563v-10z" />
<glyph unicode="&#xd7;" horiz-adv-x="884" d="M592 814l-147 147l-131 -147l-131 147l-147 -147l147 -131l-147 -132l147 -147l131 147l131 -147l147 147l-147 132zM775 686l-135 -123l14 -12l-4 -3l125 -125l-202 -201l-124 124l-4 -3l-13 14l-121 -135l-125 124l-3 -3l-209 208l140 128l-58 60l-82 75l209 208 l64 -73l64 -62l5 -8l129 143l209 -208l-4 -3z" />
<glyph unicode="&#xd8;" horiz-adv-x="1536" d="M1041 1249q-167 150 -399 150q-289 0 -466 -218q-167 -203 -167 -498q0 -232 110 -420l-165 -178l131 -133l156 164q166 -148 401 -148q288 0 464 216q165 202 165 499q0 232 -110 420l167 177l-135 135zM268 422q-55 117 -55 261q0 207 108 353q118 159 321 159 q153 0 259 -94zM1067 683q0 -210 -106 -352q-118 -160 -319 -160q-153 0 -263 95l635 678q53 -123 53 -261zM1384 1278l125 -124l-174 -185q102 -186 102 -414q0 -310 -174 -523q-97 -115 -216.5 -172.5t-276.5 -57.5q-229 0 -400 135l-157 -167l-124 124l-4 -3l-189 194 l171 183q-101 194 -101 415q0 309 177 525q190 234 499 234q216 0 394 -136l157 170l195 -194zM480 886q-45 -60 -70.5 -129.5t-30.5 -154.5l396 427h-5q-94 0 -164.5 -35.5t-125.5 -107.5zM927 357q83 115 95 274l-394 -418h14q181 0 285 144z" />
<glyph unicode="&#xd9;" horiz-adv-x="1280" d="M317 1792l209 -375h170l-126 375h-253zM725 1702l152 -451h-246l-123 123h-8l-254 461h355l3 -14zM768 1399v-972q0 -104 -75 -180t-179 -76q-105 0 -181 76q-77 77 -77 180v972h-205v-972q0 -190 136 -325q137 -134 327 -134q187 0 324 134q135 135 135 325v972h-205z M1138 1309v-1010q0 -208 -145 -352q-145 -145 -351 -145q-209 0 -354 145l-78 77q-14 11 -27 23t-26 25q-75 75 -111.5 162t-36.5 193v1015h290v-10l123 -123v-1010q0 -41 10 -70q32 -16 82 -16q85 0 157 72v-2q27 31 40.5 65t13.5 79v1015h290v-10z" />
<glyph unicode="&#xda;" horiz-adv-x="1280" d="M768 1399v-972q0 -104 -75 -180t-179 -76q-105 0 -181 76q-77 77 -77 180v972h-205v-972q0 -190 136 -325q137 -134 327 -134q187 0 324 134q135 135 135 325v972h-205zM1138 1309v-1010q0 -208 -145 -352q-145 -145 -351 -145q-209 0 -354 145l-78 77q-14 11 -27 23 t-26 25q-75 75 -111.5 162t-36.5 193v1015h290v-10l123 -123v-1010q0 -41 10 -70q32 -16 82 -16q85 0 157 72v-2q27 31 40.5 65t13.5 79v1015h290v-10zM328 1417h170l208 375h-252zM773 1826l125 -124l-250 -451h-245l-123 123h-12l155 461h355z" />
<glyph unicode="&#xdb;" horiz-adv-x="1280" d="M393 1741l-237 -324h237l119 165l120 -165h237l-237 324h-239zM779 1650l293 -399h-333l-116 114l-82 -114h-332l-123 123h-16l303 409h279l19 -25zM768 1399v-972q0 -104 -75 -180t-179 -76q-105 0 -181 76q-77 77 -77 180v972h-205v-972q0 -190 136 -325 q137 -134 327 -134q187 0 324 134q135 135 135 325v972h-205zM1138 1309v-1010q0 -208 -145 -352q-145 -145 -351 -145q-209 0 -354 145l-78 77q-14 11 -27 23t-26 25q-75 75 -111.5 162t-36.5 193v1015h290v-10l123 -123v-1010q0 -41 10 -70q32 -16 82 -16q85 0 157 72v-2 q27 31 40.5 65t13.5 79v1015h290v-10z" />
<glyph unicode="&#xdc;" horiz-adv-x="1280" d="M546 1621v-204h205v204h-205zM273 1621v-204h205v204h-205zM917 1531v-280h-553l-123 123h-10v290h563v-10zM768 1399v-972q0 -104 -75 -180t-179 -76q-105 0 -181 76q-77 77 -77 180v972h-205v-972q0 -190 136 -325q137 -134 327 -134q187 0 324 134q135 135 135 325 v972h-205zM1138 1309v-1010q0 -208 -145 -352q-145 -145 -351 -145q-209 0 -354 145l-78 77q-14 11 -27 23t-26 25q-75 75 -111.5 162t-36.5 193v1015h290v-10l123 -123v-1010q0 -41 10 -70q32 -16 82 -16q85 0 157 72v-2q27 31 40.5 65t13.5 79v1015h290v-10z" />
<glyph unicode="&#xdd;" horiz-adv-x="1024" d="M384 855l-207 544h-226l331 -808v-623h204v623l333 808h-228zM877 1432l125 -123l-350 -852v-655h-280l-123 123h-10v659l-352 858h321l5 -14l120 -119l87 -234l140 367h322zM200 1417h170l208 375h-252zM645 1826l125 -124l-250 -451h-245l-123 123h-12l155 461h355z " />
<glyph unicode="&#xde;" horiz-adv-x="1203" d="M939 683q0 170 -110 289q-110 120 -281 120h-292v307h-205v-1431h205v305h292q172 0 281 121q110 116 110 289zM734 683q0 -88 -51 -146q-50 -59 -135 -59h-292v409h292q85 0 135 -59q51 -59 51 -145zM548 1135q190 0 310 -133q8 -11 16.5 -20t14.5 -19l87 -87 q2 -2 4 -3.5t3 -2.5q121 -133 121 -315q0 -189 -119 -314q-120 -133 -309 -133h-254v-306h-280l-123 123h-10v1517h290v-10l123 -123v-174h126zM691 683q0 9 -1 18.5t-2 18.5q-8 2 -12 2h-254v-201h126q33 0 59 12.5t45 34t29 51t10 64.5z" />
<glyph unicode="&#xdf;" horiz-adv-x="1246" d="M939 375q0 216 -169 318q135 106 135 297q0 171 -111 290q-110 119 -280 119h-463v-1602h205v1398h258q85 0 135 -59q51 -59 51 -146t-50 -143q-51 -62 -136 -62h-139v-205h173q85 0 135 -59q51 -59 51 -146t-50 -143q-51 -61 -136 -61h-173v-203h173q172 0 281 118 q110 119 110 289zM9 -246v1688h505q97 0 172 -32t138 -101q8 -11 16.5 -20t14.5 -19l75 -74q-5 0 -5 4l9 -9q-2 0 -2 4l17 -17q60 -67 90.5 -144.5t30.5 -171.5q0 -180 -111 -292l24 -22l-3 2l15 -14q109 -109 109 -289q0 -182 -121 -315q-60 -66 -135 -98t-172 -32h-210 l-44 44v-215h-280l-123 123h-10zM548 213q67 0 104 46q39 43 39 116q0 9 -1 19t-2 19q-8 2 -12 2h-210l-44 44v-246h126zM514 828q32 0 59 11.5t45 34.5q39 45 39 116q0 9 -1 18.5t-2 18.5q-8 2 -12 2h-220v-201h92zM770 379q0 2 -2 2zM736 993q0 2 -2 2z" />
<glyph unicode="&#xe0;" horiz-adv-x="1109" d="M232 1792l209 -375h170l-126 375h-253zM640 1702l152 -451h-246l-123 123h-8l-254 461h355l3 -14zM329 1399l-372 -1431h212l87 339h341l87 -339h214l-376 1431h-193zM427 993l128 -481h-256zM679 1309l394 -1507h-290l-123 123h-8l-56 217h-185l-85 -340h-288l-123 123 h-12l394 1517h258l3 -12z" />
<glyph unicode="&#xe1;" horiz-adv-x="1109" d="M329 1399l-372 -1431h212l87 339h341l87 -339h214l-376 1431h-193zM427 993l128 -481h-256zM679 1309l394 -1507h-290l-123 123h-8l-56 217h-185l-85 -340h-288l-123 123h-12l394 1517h258l3 -12zM243 1417h170l208 375h-252zM688 1826l125 -124l-250 -451h-245l-123 123 h-12l155 461h355z" />
<glyph unicode="&#xe2;" horiz-adv-x="1109" d="M307 1741l-237 -324h237l119 165l120 -165h237l-237 324h-239zM693 1650l293 -399h-333l-116 114l-82 -114h-332l-123 123h-16l303 409h279l19 -25zM329 1399l-372 -1431h212l87 339h341l87 -339h214l-376 1431h-193zM427 993l128 -481h-256zM679 1309l394 -1507h-290 l-123 123h-8l-56 217h-185l-85 -340h-288l-123 123h-12l394 1517h258l3 -12z" />
<glyph unicode="&#xe3;" horiz-adv-x="1109" d="M329 1399l-372 -1431h212l87 339h341l87 -339h214l-376 1431h-193zM427 993l128 -481h-256zM679 1309l394 -1507h-290l-123 123h-8l-56 217h-185l-85 -340h-288l-123 123h-12l394 1517h258l3 -12zM716 1778q-141 -157 -204 -157q-21 0 -72 51q-49 52 -99 52 q-93 0 -205 -123v-239q144 157 205 157q21 0 71 -51q49 -51 100 -51q94 0 204 122v239zM882 1748v-350q-131 -147 -242 -147q-31 0 -61 13.5t-59 42.5l-37 38q-11 8 -14 8q-45 0 -242 -215l-125 125q-2 -2 -4.5 -4t-3.5 -5v362q139 150 247 150q31 0 61.5 -13.5t59.5 -42.5 v2q48 -48 50 -48q41 0 247 225v-18z" />
<glyph unicode="&#xe4;" horiz-adv-x="1109" d="M461 1621v-204h205v204h-205zM188 1621v-204h205v204h-205zM832 1531v-280h-553l-123 123h-10v290h563v-10zM329 1399l-372 -1431h212l87 339h341l87 -339h214l-376 1431h-193zM427 993l128 -481h-256zM679 1309l394 -1507h-290l-123 123h-8l-56 217h-185l-85 -340h-288 l-123 123h-12l394 1517h258l3 -12z" />
<glyph unicode="&#xe5;" horiz-adv-x="1109" d="M632 1621q0 84 -61 144q-60 61 -144 61t-145 -61q-60 -60 -60 -144q0 -83 60 -144q61 -60 145 -60t144 60q61 61 61 144zM478 1621q0 -51 -51 -51t-51 51q0 52 51 52t51 -52zM287 1415q-9 6 -18 14t-18 17q-35 37 -53 79t-18 96q0 103 71 174q38 38 80 56t96 18 q101 0 172 -74q12 -11 21.5 -22.5t18.5 -24.5l90 -89q33 -33 50.5 -74t17.5 -92t-18 -93.5t-53 -78.5q-70 -70 -171 -70q-102 0 -172 70zM329 1399l-372 -1431h212l87 339h341l87 -339h214l-376 1431h-193zM427 993l128 -481h-256zM679 1309l394 -1507h-290l-123 123h-8 l-56 217h-185l-85 -340h-288l-123 123h-12l394 1517h258l3 -12z" />
<glyph unicode="&#xe6;" horiz-adv-x="1650" d="M882 171v409h296l-26 205h-270v410h441l25 204h-670v-614l-154 614h-195l-372 -1431h212l87 339h341l87 -339h664l-25 203h-441zM427 993l128 -481h-256zM1485 80l34 -278h-736l-123 123h-8l-56 217h-185l-85 -340h-288l-123 123h-12l394 1517h261l3 -14l74 -73v87h761 l-2 -10l125 -123l-34 -280h-437v-201h143l2 -12l121 -121l34 -280h-300v-202h314l2 -12z" />
<glyph unicode="&#xe8;" horiz-adv-x="1024" d="M189 1792l209 -375h170l-126 375h-253zM597 1702l152 -451h-246l-123 123h-8l-254 461h355l3 -14zM256 171v409h295l-25 205h-270v410h440l26 204h-671v-1431h671l-26 203h-440zM858 80l35 -278h-751l-123 123h-10v1517h761l-2 -10l125 -123l-35 -280h-436v-201h143 l2 -12l121 -121l34 -280h-300v-202h314l1 -12z" />
<glyph unicode="&#xe9;" horiz-adv-x="1024" d="M256 171v409h295l-25 205h-270v410h440l26 204h-671v-1431h671l-26 203h-440zM858 80l35 -278h-751l-123 123h-10v1517h761l-2 -10l125 -123l-35 -280h-436v-201h143l2 -12l121 -121l34 -280h-300v-202h314l1 -12zM200 1417h170l208 375h-252zM645 1826l125 -124 l-250 -451h-245l-123 123h-12l155 461h355z" />
<glyph unicode="&#xea;" horiz-adv-x="1024" d="M265 1741l-237 -324h237l119 165l120 -165h237l-237 324h-239zM651 1650l293 -399h-333l-116 114l-82 -114h-332l-123 123h-16l303 409h279l19 -25zM256 171v409h295l-25 205h-270v410h440l26 204h-671v-1431h671l-26 203h-440zM858 80l35 -278h-751l-123 123h-10v1517 h761l-2 -10l125 -123l-35 -280h-436v-201h143l2 -12l121 -121l34 -280h-300v-202h314l1 -12z" />
<glyph unicode="&#xeb;" horiz-adv-x="1024" d="M418 1621v-204h205v204h-205zM145 1621v-204h205v204h-205zM789 1531v-280h-553l-123 123h-10v290h563v-10zM256 171v409h295l-25 205h-270v410h440l26 204h-671v-1431h671l-26 203h-440zM858 80l35 -278h-751l-123 123h-10v1517h761l-2 -10l125 -123l-35 -280h-436v-201 h143l2 -12l121 -121l34 -280h-300v-202h314l1 -12z" />
<glyph unicode="&#xec;" d="M-38 1792l209 -375h170l-126 375h-253zM370 1702l152 -451h-246l-123 123h-8l-254 461h355l3 -14zM51 1399v-1431h205v1431h-205zM422 1309v-1507h-280l-123 123h-10v1517h290v-10z" />
<glyph unicode="&#xed;" d="M-27 1417h170l208 375h-252zM418 1826l125 -124l-250 -451h-245l-123 123h-12l155 461h355zM51 1399v-1431h205v1431h-205zM422 1309v-1507h-280l-123 123h-10v1517h290v-10z" />
<glyph unicode="&#xee;" d="M37 1741l-237 -324h237l119 165l120 -165h237l-237 324h-239zM423 1650l293 -399h-333l-116 114l-82 -114h-332l-123 123h-16l303 409h279l19 -25zM51 1399v-1431h205v1431h-205zM422 1309v-1507h-280l-123 123h-10v1517h290v-10z" />
<glyph unicode="&#xef;" d="M190 1621v-204h205v204h-205zM-83 1621v-204h205v204h-205zM561 1531v-280h-553l-123 123h-10v290h563v-10zM51 1399v-1431h205v1431h-205zM422 1309v-1507h-280l-123 123h-10v1517h290v-10z" />
<glyph unicode="&#xf1;" horiz-adv-x="1161" d="M649 1399v-928l-405 928h-193v-1431h205v926l404 -926h193v1431h-204zM1019 1309v-1507h-254l-123 123h-9l-211 485v-608h-280l-123 123h-10v1517h262l7 -15l118 -118l210 -481v614h290v-10zM742 1778q-141 -157 -204 -157q-21 0 -72 51q-49 52 -99 52q-93 0 -205 -123 v-239q144 157 205 157q21 0 71 -51q49 -51 100 -51q94 0 204 122v239zM908 1748v-350q-131 -147 -242 -147q-31 0 -61 13.5t-59 42.5l-37 38q-11 8 -14 8q-45 0 -242 -215l-125 125q-2 -2 -4.5 -4t-3.5 -5v362q139 150 247 150q31 0 61.5 -13.5t59.5 -42.5v2q48 -48 50 -48 q41 0 247 225v-18z" />
<glyph unicode="&#xf2;" horiz-adv-x="1536" d="M445 1792l209 -375h170l-126 375h-253zM853 1702l152 -451h-246l-123 123h-8l-254 461h355l3 -14zM1271 683q0 295 -165 498q-176 218 -464 218q-289 0 -468 -218q-165 -203 -165 -498q0 -297 165 -499q178 -216 468 -216q288 0 464 216q165 202 165 499zM1067 683 q0 -210 -106 -352q-118 -160 -319 -160q-202 0 -321 158q-108 144 -108 354t108 353q118 159 321 159q200 0 319 -161q106 -142 106 -351zM244 55q-27 22 -53 47.5t-49 54.5q-91 109 -133.5 239t-42.5 287t42.5 286.5t133.5 238.5q192 234 500 234q307 0 496 -234 q2 -2 3.5 -4.5t3.5 -3.5l68 -68q14 -14 26.5 -27.5t23.5 -27.5q174 -213 174 -522q0 -310 -174 -523q-97 -115 -216.5 -172.5t-276.5 -57.5q-269 0 -451 179zM1024 683q0 88 -21.5 166t-63.5 141q-38 19 -79.5 29t-89.5 10q-94 0 -164.5 -35.5t-125.5 -107.5 q-101 -137 -101 -331q0 -169 73 -290q79 -52 190 -52q181 0 285 144q97 133 97 326z" />
<glyph unicode="&#xf3;" horiz-adv-x="1536" d="M1271 683q0 295 -165 498q-176 218 -464 218q-289 0 -468 -218q-165 -203 -165 -498q0 -297 165 -499q178 -216 468 -216q288 0 464 216q165 202 165 499zM1067 683q0 -210 -106 -352q-118 -160 -319 -160q-202 0 -321 158q-108 144 -108 354t108 353q118 159 321 159 q200 0 319 -161q106 -142 106 -351zM244 55q-27 22 -53 47.5t-49 54.5q-91 109 -133.5 239t-42.5 287t42.5 286.5t133.5 238.5q192 234 500 234q307 0 496 -234q2 -2 3.5 -4.5t3.5 -3.5l68 -68q14 -14 26.5 -27.5t23.5 -27.5q174 -213 174 -522q0 -310 -174 -523 q-97 -115 -216.5 -172.5t-276.5 -57.5q-269 0 -451 179zM1024 683q0 88 -21.5 166t-63.5 141q-38 19 -79.5 29t-89.5 10q-94 0 -164.5 -35.5t-125.5 -107.5q-101 -137 -101 -331q0 -169 73 -290q79 -52 190 -52q181 0 285 144q97 133 97 326zM456 1417h170l208 375h-252z M901 1826l125 -124l-250 -451h-245l-123 123h-12l155 461h355z" />
<glyph unicode="&#xf4;" horiz-adv-x="1536" d="M521 1741l-237 -324h237l119 165l120 -165h237l-237 324h-239zM907 1650l293 -399h-333l-116 114l-82 -114h-332l-123 123h-16l303 409h279l19 -25zM1271 683q0 295 -165 498q-176 218 -464 218q-289 0 -468 -218q-165 -203 -165 -498q0 -297 165 -499q178 -216 468 -216 q288 0 464 216q165 202 165 499zM1067 683q0 -210 -106 -352q-118 -160 -319 -160q-202 0 -321 158q-108 144 -108 354t108 353q118 159 321 159q200 0 319 -161q106 -142 106 -351zM244 55q-27 22 -53 47.5t-49 54.5q-91 109 -133.5 239t-42.5 287t42.5 286.5t133.5 238.5 q192 234 500 234q307 0 496 -234q2 -2 3.5 -4.5t3.5 -3.5l68 -68q14 -14 26.5 -27.5t23.5 -27.5q174 -213 174 -522q0 -310 -174 -523q-97 -115 -216.5 -172.5t-276.5 -57.5q-269 0 -451 179zM1024 683q0 88 -21.5 166t-63.5 141q-38 19 -79.5 29t-89.5 10 q-94 0 -164.5 -35.5t-125.5 -107.5q-101 -137 -101 -331q0 -169 73 -290q79 -52 190 -52q181 0 285 144q97 133 97 326z" />
<glyph unicode="&#xf5;" horiz-adv-x="1536" d="M1271 683q0 295 -165 498q-176 218 -464 218q-289 0 -468 -218q-165 -203 -165 -498q0 -297 165 -499q178 -216 468 -216q288 0 464 216q165 202 165 499zM1067 683q0 -210 -106 -352q-118 -160 -319 -160q-202 0 -321 158q-108 144 -108 354t108 353q118 159 321 159 q200 0 319 -161q106 -142 106 -351zM244 55q-27 22 -53 47.5t-49 54.5q-91 109 -133.5 239t-42.5 287t42.5 286.5t133.5 238.5q192 234 500 234q307 0 496 -234q2 -2 3.5 -4.5t3.5 -3.5l68 -68q14 -14 26.5 -27.5t23.5 -27.5q174 -213 174 -522q0 -310 -174 -523 q-97 -115 -216.5 -172.5t-276.5 -57.5q-269 0 -451 179zM1024 683q0 88 -21.5 166t-63.5 141q-38 19 -79.5 29t-89.5 10q-94 0 -164.5 -35.5t-125.5 -107.5q-101 -137 -101 -331q0 -169 73 -290q79 -52 190 -52q181 0 285 144q97 133 97 326zM930 1778q-141 -157 -204 -157 q-21 0 -72 51q-49 52 -99 52q-93 0 -205 -123v-239q144 157 205 157q21 0 71 -51q49 -51 100 -51q94 0 204 122v239zM1096 1748v-350q-131 -147 -242 -147q-31 0 -61 13.5t-59 42.5l-37 38q-11 8 -14 8q-45 0 -242 -215l-125 125q-2 -2 -4.5 -4t-3.5 -5v362q139 150 247 150 q31 0 61.5 -13.5t59.5 -42.5v2q48 -48 50 -48q41 0 247 225v-18z" />
<glyph unicode="&#xf6;" horiz-adv-x="1536" d="M674 1621v-204h205v204h-205zM401 1621v-204h205v204h-205zM1045 1531v-280h-553l-123 123h-10v290h563v-10zM1271 683q0 295 -165 498q-176 218 -464 218q-289 0 -468 -218q-165 -203 -165 -498q0 -297 165 -499q178 -216 468 -216q288 0 464 216q165 202 165 499z M1067 683q0 -210 -106 -352q-118 -160 -319 -160q-202 0 -321 158q-108 144 -108 354t108 353q118 159 321 159q200 0 319 -161q106 -142 106 -351zM244 55q-27 22 -53 47.5t-49 54.5q-91 109 -133.5 239t-42.5 287t42.5 286.5t133.5 238.5q192 234 500 234q307 0 496 -234 q2 -2 3.5 -4.5t3.5 -3.5l68 -68q14 -14 26.5 -27.5t23.5 -27.5q174 -213 174 -522q0 -310 -174 -523q-97 -115 -216.5 -172.5t-276.5 -57.5q-269 0 -451 179zM1024 683q0 88 -21.5 166t-63.5 141q-38 19 -79.5 29t-89.5 10q-94 0 -164.5 -35.5t-125.5 -107.5 q-101 -137 -101 -331q0 -169 73 -290q79 -52 190 -52q181 0 285 144q97 133 97 326z" />
<glyph unicode="&#xf7;" horiz-adv-x="939" d="M239 1058v-205h205v205h-205zM51 785v-205h580v205h-580zM239 512v-205h205v205h-205zM797 695v-280h-188v-273h-280l-122 123h-11v150h-54l-123 123h-10v290h187v273h290v-10l123 -123v-140h65v-11z" />
<glyph unicode="&#xf8;" horiz-adv-x="1536" d="M1041 1249q-167 150 -399 150q-289 0 -466 -218q-167 -203 -167 -498q0 -232 110 -420l-165 -178l131 -133l156 164q166 -148 401 -148q288 0 464 216q165 202 165 499q0 232 -110 420l167 177l-135 135zM268 422q-55 117 -55 261q0 207 108 353q118 159 321 159 q153 0 259 -94zM1067 683q0 -210 -106 -352q-118 -160 -319 -160q-153 0 -263 95l635 678q53 -123 53 -261zM1384 1278l125 -124l-174 -185q102 -186 102 -414q0 -310 -174 -523q-97 -115 -216.5 -172.5t-276.5 -57.5q-229 0 -400 135l-157 -167l-124 124l-4 -3l-189 194 l171 183q-101 194 -101 415q0 309 177 525q190 234 499 234q216 0 394 -136l157 170l195 -194zM480 886q-45 -60 -70.5 -129.5t-30.5 -154.5l396 427h-5q-94 0 -164.5 -35.5t-125.5 -107.5zM927 357q83 115 95 274l-394 -418h14q181 0 285 144z" />
<glyph unicode="&#xf9;" horiz-adv-x="1280" d="M317 1792l209 -375h170l-126 375h-253zM725 1702l152 -451h-246l-123 123h-8l-254 461h355l3 -14zM768 1399v-972q0 -104 -75 -180t-179 -76q-105 0 -181 76q-77 77 -77 180v972h-205v-972q0 -190 136 -325q137 -134 327 -134q187 0 324 134q135 135 135 325v972h-205z M1138 1309v-1010q0 -208 -145 -352q-145 -145 -351 -145q-209 0 -354 145l-78 77q-14 11 -27 23t-26 25q-75 75 -111.5 162t-36.5 193v1015h290v-10l123 -123v-1010q0 -41 10 -70q32 -16 82 -16q85 0 157 72v-2q27 31 40.5 65t13.5 79v1015h290v-10z" />
<glyph unicode="&#xfa;" horiz-adv-x="1280" d="M768 1399v-972q0 -104 -75 -180t-179 -76q-105 0 -181 76q-77 77 -77 180v972h-205v-972q0 -190 136 -325q137 -134 327 -134q187 0 324 134q135 135 135 325v972h-205zM1138 1309v-1010q0 -208 -145 -352q-145 -145 -351 -145q-209 0 -354 145l-78 77q-14 11 -27 23 t-26 25q-75 75 -111.5 162t-36.5 193v1015h290v-10l123 -123v-1010q0 -41 10 -70q32 -16 82 -16q85 0 157 72v-2q27 31 40.5 65t13.5 79v1015h290v-10zM328 1417h170l208 375h-252zM773 1826l125 -124l-250 -451h-245l-123 123h-12l155 461h355z" />
<glyph unicode="&#xfb;" horiz-adv-x="1280" d="M393 1741l-237 -324h237l119 165l120 -165h237l-237 324h-239zM779 1650l293 -399h-333l-116 114l-82 -114h-332l-123 123h-16l303 409h279l19 -25zM768 1399v-972q0 -104 -75 -180t-179 -76q-105 0 -181 76q-77 77 -77 180v972h-205v-972q0 -190 136 -325 q137 -134 327 -134q187 0 324 134q135 135 135 325v972h-205zM1138 1309v-1010q0 -208 -145 -352q-145 -145 -351 -145q-209 0 -354 145l-78 77q-14 11 -27 23t-26 25q-75 75 -111.5 162t-36.5 193v1015h290v-10l123 -123v-1010q0 -41 10 -70q32 -16 82 -16q85 0 157 72v-2 q27 31 40.5 65t13.5 79v1015h290v-10z" />
<glyph unicode="&#xfc;" horiz-adv-x="1280" d="M546 1621v-204h205v204h-205zM273 1621v-204h205v204h-205zM917 1531v-280h-553l-123 123h-10v290h563v-10zM768 1399v-972q0 -104 -75 -180t-179 -76q-105 0 -181 76q-77 77 -77 180v972h-205v-972q0 -190 136 -325q137 -134 327 -134q187 0 324 134q135 135 135 325 v972h-205zM1138 1309v-1010q0 -208 -145 -352q-145 -145 -351 -145q-209 0 -354 145l-78 77q-14 11 -27 23t-26 25q-75 75 -111.5 162t-36.5 193v1015h290v-10l123 -123v-1010q0 -41 10 -70q32 -16 82 -16q85 0 157 72v-2q27 31 40.5 65t13.5 79v1015h290v-10z" />
<glyph unicode="&#xfd;" horiz-adv-x="1024" d="M200 1417h170l208 375h-252zM645 1826l125 -124l-250 -451h-245l-123 123h-12l155 461h355zM384 855l-207 544h-226l331 -808v-623h204v623l333 808h-228zM877 1432l125 -123l-350 -852v-655h-280l-123 123h-10v659l-352 858h321l5 -14l120 -119l87 -234l140 367h322z " />
<glyph unicode="&#xfe;" horiz-adv-x="1203" d="M939 683q0 170 -110 289q-110 120 -281 120h-292v307h-205v-1431h205v305h292q172 0 281 121q110 116 110 289zM734 683q0 -88 -51 -146q-50 -59 -135 -59h-292v409h292q85 0 135 -59q51 -59 51 -145zM548 1135q190 0 310 -133q8 -11 16.5 -20t14.5 -19l87 -87 q2 -2 4 -3.5t3 -2.5q121 -133 121 -315q0 -189 -119 -314q-120 -133 -309 -133h-254v-306h-280l-123 123h-10v1517h290v-10l123 -123v-174h126zM691 683q0 9 -1 18.5t-2 18.5q-8 2 -12 2h-254v-201h126q33 0 59 12.5t45 34t29 51t10 64.5z" />
<glyph unicode="&#xff;" horiz-adv-x="1024" d="M384 855l-207 544h-226l331 -808v-623h204v623l333 808h-228zM877 1432l125 -123l-350 -852v-655h-280l-123 123h-10v659l-352 858h321l5 -14l120 -119l87 -234l140 367h322zM418 1621v-204h205v204h-205zM145 1621v-204h205v204h-205zM789 1531v-280h-553l-123 123h-10 v290h563v-10z" />
<glyph unicode="&#x152;" horiz-adv-x="2039" d="M1271 171v409h296l-26 205h-270v410h441l25 204h-670v-172q-171 172 -425 172q-289 0 -466 -218q-167 -203 -167 -498q0 -297 165 -499q178 -216 468 -216q252 0 425 170v-170h670l-25 203h-441zM1067 683q0 -210 -106 -352q-118 -160 -319 -160q-202 0 -321 158 q-108 145 -108 354q0 207 108 353q118 159 321 159q200 0 319 -161q106 -142 106 -351zM1874 80l34 -278h-751l-75 75q-69 -37 -146.5 -56t-165.5 -19q-269 0 -451 179l-75 74q-27 22 -53 47.5t-49 54.5q-91 109 -133.5 239t-42.5 287q0 309 177 525q190 234 499 234 q219 0 382 -121v121h761l-2 -10l125 -123l-34 -280h-437v-201h143l2 -12l121 -121l34 -280h-300v-202h314l2 -12zM1024 683q0 88 -21.5 166t-63.5 141q-38 19 -79.5 29t-89.5 10q-94 0 -164.5 -35.5t-125.5 -107.5q-101 -137 -101 -331q0 -85 18 -156t54 -134 q79 -52 191 -52q181 0 285 144q97 133 97 326z" />
<glyph unicode="&#x153;" horiz-adv-x="2039" d="M1271 171v409h296l-26 205h-270v410h441l25 204h-670v-174q-173 174 -425 174q-289 0 -466 -218q-167 -203 -167 -498q0 -297 165 -499q178 -216 468 -216q252 0 425 170v-170h670l-25 203h-441zM1067 683q0 -210 -106 -352q-118 -160 -319 -160q-202 0 -321 158 q-108 145 -108 354q0 207 108 353q118 159 321 159q200 0 319 -161q106 -142 106 -351zM1874 80l34 -278h-751l-75 75q-69 -37 -146.5 -56t-165.5 -19q-269 0 -451 179l-75 74q-27 22 -53 47.5t-49 54.5q-91 109 -133.5 239t-42.5 287q0 309 177 525q190 234 499 234 q109 0 204.5 -31.5t177.5 -92.5v124h761l-2 -10l125 -123l-34 -280h-437v-201h143l2 -12l121 -121l34 -280h-300v-202h314l2 -12zM1024 683q0 88 -21.5 166t-63.5 141q-38 19 -79.5 29t-89.5 10q-94 0 -164.5 -35.5t-125.5 -107.5q-101 -137 -101 -331q0 -85 18 -156 t54 -134q79 -52 191 -52q181 0 285 144q97 133 97 326z" />
<glyph unicode="&#x178;" horiz-adv-x="1024" d="M418 1621v-204h205v204h-205zM145 1621v-204h205v204h-205zM789 1531v-280h-553l-123 123h-10v290h563v-10zM384 855l-207 544h-226l331 -808v-623h204v623l333 808h-228zM877 1432l125 -123l-350 -852v-655h-280l-123 123h-10v659l-352 858h321l5 -14l120 -119l87 -234 l140 367h322z" />
<glyph unicode="&#x2c6;" horiz-adv-x="1007" d="M256 1741l-237 -324h237l119 165l120 -165h237l-237 324h-239zM642 1650l293 -399h-333l-116 114l-82 -114h-332l-123 123h-16l303 409h279l19 -25z" />
<glyph unicode="&#x2dc;" horiz-adv-x="939" d="M631 1778q-141 -157 -204 -157q-21 0 -72 51q-49 52 -99 52q-93 0 -205 -123v-239q144 157 205 157q21 0 71 -51q49 -51 100 -51q94 0 204 122v239zM797 1748v-350q-131 -147 -242 -147q-31 0 -61 13.5t-59 42.5l-37 38q-11 8 -14 8q-45 0 -242 -215l-125 125 q-2 -2 -4.5 -4t-3.5 -5v362q139 150 247 150q31 0 61.5 -13.5t59.5 -42.5v2q48 -48 50 -48q41 0 247 225v-18z" />
<glyph unicode="&#x2000;" horiz-adv-x="944" />
<glyph unicode="&#x2001;" horiz-adv-x="1889" />
<glyph unicode="&#x2002;" horiz-adv-x="944" />
<glyph unicode="&#x2003;" horiz-adv-x="1889" />
<glyph unicode="&#x2004;" horiz-adv-x="629" />
<glyph unicode="&#x2005;" horiz-adv-x="472" />
<glyph unicode="&#x2006;" horiz-adv-x="314" />
<glyph unicode="&#x2007;" horiz-adv-x="314" />
<glyph unicode="&#x2008;" horiz-adv-x="236" />
<glyph unicode="&#x2009;" horiz-adv-x="377" />
<glyph unicode="&#x200a;" horiz-adv-x="104" />
<glyph unicode="&#x2010;" horiz-adv-x="939" d="M9 828v-290h10l123 -123h655v280l-123 122v11h-665zM51 580v205h580v-205h-580zM840 737v-30l123 -123v-335h-710l-123 123h-31l-123 123h-10v375h751v-10z" />
<glyph unicode="&#x2011;" horiz-adv-x="939" d="M9 828v-290h10l123 -123h655v280l-123 122v11h-665zM51 580v205h580v-205h-580zM840 737v-30l123 -123v-335h-710l-123 123h-31l-123 123h-10v375h751v-10z" />
<glyph unicode="&#x2012;" horiz-adv-x="939" d="M9 828v-290h10l123 -123h655v280l-123 122v11h-665zM51 580v205h580v-205h-580zM840 737v-30l123 -123v-335h-710l-123 123h-31l-123 123h-10v375h751v-10z" />
<glyph unicode="&#x2013;" horiz-adv-x="768" d="M51 785v-205h410v205h-410zM626 695v-280h-484l-123 123h-10v290h494v-11z" />
<glyph unicode="&#x2014;" horiz-adv-x="1109" d="M51 785v-205h751v205h-751zM968 695v-280h-826l-123 123h-10v290h836v-11z" />
<glyph unicode="&#x2018;" d="M89 1058h129l43 341h-215zM307 1432l125 -123l-51 -416h-198l-123 122h-11l-51 427h311z" />
<glyph unicode="&#x2019;" d="M89 1058h129l43 341h-215zM307 1432l125 -123l-51 -416h-198l-123 122h-11l-51 427h311z" />
<glyph unicode="&#x201a;" d="M89 -169h129l43 340h-215zM307 203l125 -123l-51 -415h-198l-123 123h-11l-51 425h311z" />
<glyph unicode="&#x201c;" horiz-adv-x="785" d="M311 1058h129l43 341h-215zM89 1058h129l43 341h-215zM529 1432l125 -123l-52 -416h-198l-22 20l-1 -20h-198l-123 122h-11l-51 427h533z" />
<glyph unicode="&#x201d;" horiz-adv-x="785" d="M311 1058h129l43 341h-215zM89 1058h129l43 341h-215zM529 1432l125 -123l-52 -416h-198l-22 20l-1 -20h-198l-123 122h-11l-51 427h533z" />
<glyph unicode="&#x201e;" horiz-adv-x="785" d="M311 -169h129l43 340h-215zM89 -169h129l43 340h-215zM529 203l125 -123l-52 -415h-198l-22 23l-1 -23h-198l-123 123h-11l-51 425h533z" />
<glyph unicode="&#x2022;" horiz-adv-x="1143" d="M836 683q0 193 -95 327q-109 151 -296 151q-188 0 -297 -151q-97 -133 -97 -327q0 -195 97 -328q109 -150 297 -150q186 0 296 150q95 137 95 328zM207 234q-49 34 -93 95q-105 142 -105 354q0 210 105 353q63 85 144 126t187 41t186.5 -41t143.5 -126l72 -72q-2 0 -6 4 l12 -11q12 -11 24 -24.5t22 -27.5q103 -145 103 -350t-103 -350q-123 -166 -326 -166q-170 0 -283 113z" />
<glyph unicode="&#x2026;" horiz-adv-x="1109" d="M597 171v-203h205v203h-205zM324 171v-203h205v203h-205zM51 171v-203h205v203h-205zM968 80v-278h-826l-123 123h-10v288h836v-10z" />
<glyph unicode="&#x202f;" horiz-adv-x="377" />
<glyph unicode="&#x2039;" horiz-adv-x="794" d="M519 887h-263l-213 -290l213 -290h263l-212 290zM722 797l-241 -328l241 -327h-357l-123 123h-6l-246 332l246 333h368l-7 -8z" />
<glyph unicode="&#x203a;" horiz-adv-x="794" d="M19 887l211 -290l-211 -290h263l213 290l-213 290h-263zM428 797l243 -328l-243 -327h-356l-123 123h-16l244 332l-244 333h369l19 -27z" />
<glyph unicode="&#x205f;" horiz-adv-x="472" />
<glyph unicode="&#x20ac;" horiz-adv-x="1608" d="M1355 1224q-196 175 -437 175q-213 0 -379 -145q-154 -136 -215 -349h-106l-71 -171h147q-1 -13 -1.5 -25.5t-0.5 -25.5t0.5 -26t1.5 -26h-188l-72 -170h290q60 -212 207 -347q161 -146 370 -146q191 0 362 117v255q-175 -169 -345 -169q-131 0 -234 85q-95 77 -145 205 h458l71 170h-570q-1 3 -1 11v13v28v27v13q0 8 1 11h613l72 171h-644q53 127 145 204q104 86 234 86q167 0 316 -140zM1533 1101l-166 -232q-166 160 -321 160q-115 0 -210 -77q-3 -1 -7 -5h419l-6 -10l125 -123l-102 -246h-40l28 -27l-94 -227q35 24 71 55.5t76 69.5v-17 l122 -123v-360q-100 -69 -198 -103t-201 -34q-221 0 -396 157l-90 89q-11 9 -21 17t-20 19q-95 87 -159 211h-237l-123 123h-14l108 256h36l-17 17h-14l107 256h103q36 106 89.5 189t128.5 149q91 81 192 119t216 38q128 0 250 -52t243 -161l-3 -5zM725 295q2 -6 5.5 -12.5 t8.5 -14.5q42 -27 85 -41t94 -14q93 0 214 82h-407z" />
<glyph unicode="&#x2122;" horiz-adv-x="1329" d="M824 1399l-107 -440l-108 440h-546l-17 -136h176v-614h136v614h81l-29 -614h146l16 348l82 -348h126l82 348l15 -348h147l-36 750h-164zM1152 1309l39 -826h-222l-27 26l-5 -26h-184l-31 31l-2 -31h-408l-123 123h-10v491h-48l-122 123h-11l26 222h619l4 -14l112 -112 l31 126h239v-12z" />
<glyph unicode="&#x25fc;" horiz-adv-x="1440" d="M0 1440h1440v-1440h-1440v1440z" />
</font>
</defs>
</svg>
