<?xml version="1.0" standalone="no"?>
<!DOCTYPE svg PUBLIC "-//W3C//DTD SVG 1.1//EN" "http://www.w3.org/Graphics/SVG/1.1/DTD/svg11.dtd" >
<svg xmlns="http://www.w3.org/2000/svg" xmlns:xlink="http://www.w3.org/1999/xlink" version="1.1">
<metadata></metadata>
<defs>
<font id="sf_buttacup_letteringregular" horiz-adv-x="307" >
<font-face units-per-em="2048" ascent="1638" descent="-410" />
<missing-glyph horiz-adv-x="597" />
<glyph horiz-adv-x="0" />
<glyph unicode="&#xd;" horiz-adv-x="597" />
<glyph unicode=" "  horiz-adv-x="597" />
<glyph unicode="&#x09;" horiz-adv-x="597" />
<glyph unicode="&#xa0;" horiz-adv-x="597" />
<glyph unicode="!" d="M85 0v137h137v-137h-137zM205 273h-103l-17 1092h137z" />
<glyph unicode="&#x22;" horiz-adv-x="529" d="M188 1092h-69l-34 273h137zM410 1092h-69l-34 273h137z" />
<glyph unicode="#" horiz-adv-x="905" d="M382 1075l-13 -153h153l14 153h-154zM647 785l-14 -154h-136l13 154h-153l-14 -154h-136l13 154h-135v137h147l14 153h-161v137h173l13 153h137l-14 -153h154l13 153h137l-14 -153h135v-137h-147l-13 -153h160v-137h-172z" />
<glyph unicode="$" horiz-adv-x="959" d="M734 393q0 126 -203 204v-457q97 13 150 84t53 169zM428 1225q-98 -14 -150 -83q-53 -71 -53 -169q0 -127 203 -207v459zM737 973q1 100 -54 169q-55 70 -152 83v-498q156 -55 230 -114q109 -87 109 -220q0 -157 -92 -267q-91 -106 -247 -123v-172h-103v172 q-157 16 -250 123q-93 108 -93 267h137q-2 -105 53 -170q56 -70 153 -83v497q-154 55 -230 116q-109 87 -109 220q0 159 92 266q91 108 247 123v174h103v-174q157 -15 250 -123q93 -107 93 -266h-137z" />
<glyph unicode="%" horiz-adv-x="1143" d="M930 273q0 67 -29 114q-35 57 -97 57q-63 0 -99 -57q-31 -46 -31 -114t31 -114q36 -57 99 -57q62 0 97 57q29 50 29 114zM469 1092q0 65 -29 115q-35 56 -97 56q-63 0 -99 -56q-31 -46 -31 -115q0 -68 31 -114q36 -56 99 -56q62 0 97 56q29 50 29 114zM1033 273 q0 -112 -58 -188q-64 -85 -171 -85q-109 0 -173 85q-59 77 -59 188t59 188q64 85 173 85q107 0 171 -85q58 -76 58 -188zM239 0l-120 68l786 1297l119 -68zM572 1092q0 -111 -58 -187q-63 -86 -171 -86q-107 0 -172 86q-60 76 -60 187t60 188q64 85 172 85t171 -85 q58 -76 58 -188z" />
<glyph unicode="&#x26;" horiz-adv-x="940" d="M633 631h-162q-101 0 -174 -73q-73 -72 -73 -172q0 -102 73 -175q74 -74 174 -74h162v494zM770 631v-631h-299q-155 0 -270 109q-116 110 -116 261q0 236 209 335q-175 100 -175 304q0 142 104 249q105 107 248 107h350l-17 -136h-333q-90 0 -153 -71q-62 -71 -62 -161 q0 -91 63 -160t152 -69h162v137h137v-137h85v-137h-85z" />
<glyph unicode="'" d="M188 1092h-69l-34 273h137z" />
<glyph unicode="(" horiz-adv-x="478" d="M256 -169q-171 400 -171 852q0 449 171 853h137q-171 -404 -171 -853q0 -452 171 -852h-137z" />
<glyph unicode=")" horiz-adv-x="478" d="M393 683q0 -452 -171 -852h-137q171 400 171 852q0 449 -171 853h137q171 -404 171 -853z" />
<glyph unicode="*" horiz-adv-x="683" d="M529 922l-119 87v-156h-137v156l-119 -87l-69 119l137 68l-137 69l69 119l119 -87v155h137v-155l119 87l68 -119l-136 -69l136 -68z" />
<glyph unicode="+" horiz-adv-x="683" d="M410 614v-187h-137v187h-188v137h188v188h137v-188h187v-137h-187z" />
<glyph unicode="," d="M188 -135h-69l-34 272h137z" />
<glyph unicode="-" horiz-adv-x="683" d="M85 614v137h512v-137h-512z" />
<glyph unicode="." d="M85 0v137h137v-137h-137z" />
<glyph unicode="/" horiz-adv-x="659" d="M174 -157l-131 34l442 1647l131 -34z" />
<glyph unicode="0" horiz-adv-x="1280" d="M1101 683q0 222 -116 377q-127 169 -343 169q-218 0 -345 -169q-118 -154 -118 -377q0 -224 118 -378q127 -168 345 -168q215 0 343 168q116 155 116 378zM1237 683q0 -278 -155 -475q-166 -208 -440 -208q-276 0 -442 208q-157 193 -157 475q0 281 157 474 q166 208 442 208q274 0 440 -208q155 -194 155 -474z" />
<glyph unicode="1" horiz-adv-x="401" d="M179 0v1229h-136v136h273v-1365h-137z" />
<glyph unicode="2" horiz-adv-x="959" d="M89 0v137q0 162 167 317q78 63 155.5 123t155.5 121q167 143 167 275q0 118 -69 187q-68 69 -185 69q-119 0 -189 -69t-69 -187h-137v5q0 172 110 279q109 108 285 108q174 0 282 -109q108 -110 108 -283q0 -175 -165 -335q-78 -63 -154.5 -123.5t-154.5 -121.5 q-167 -140 -171 -256h632l17 -137h-785z" />
<glyph unicode="3" horiz-adv-x="940" d="M855 370q0 -151 -116 -261q-115 -109 -270 -109t-266 90q-118 97 -118 251h137q3 -95 80 -152q67 -52 167 -52t174 74t74 175q0 100 -74 172q-73 73 -174 73h-136l17 137h119q91 0 153 69q62 71 62 160q0 90 -62 161t-153 71q-92 0 -153 -58q-62 -57 -60 -147h-137v7 q0 147 102 240q100 94 248 94q144 0 248 -107t104 -249q0 -204 -174 -304q208 -99 208 -335z" />
<glyph unicode="4" horiz-adv-x="862" d="M640 0v341h-597l170 1024h145l-148 -887h430v887h137v-1365h-137z" />
<glyph unicode="5" horiz-adv-x="947" d="M862 444q0 -177 -99 -304q-108 -140 -278 -140q-126 0 -227 71q-98 72 -135 195l128 48q19 -81 85 -130q65 -47 150 -47q113 0 181 102q58 88 58 206q0 117 -66 212q-73 106 -186 106q-96 0 -163 -61q-69 -60 -85 -154l-140 -2l122 819h535l-34 -136h-384l-63 -406 q100 76 225 76q164 0 275 -150q101 -137 101 -305z" />
<glyph unicode="6" horiz-adv-x="939" d="M717 425q0 113 -67 198q-73 94 -181 94q-109 0 -181 -94q-66 -87 -66 -198t66 -196q72 -92 181 -92q107 0 181 92q67 85 67 196zM853 425q0 -170 -105 -294q-113 -131 -279 -131q-165 0 -278 131q-106 124 -106 294q0 106 43 196h-2l379 744l121 -61l-244 -480 q41 29 87 29q167 0 279 -133q105 -126 105 -295z" />
<glyph unicode="7" horiz-adv-x="853" d="M198 0h-155l553 1229h-519l17 136h717z" />
<glyph unicode="8" horiz-adv-x="940" d="M717 386q0 100 -74 172q-73 73 -174 73t-174 -73q-73 -72 -73 -172q0 -103 72 -176q73 -73 175 -73q100 0 174 74t74 175zM684 997q0 91 -62 162q-61 70 -153 70q-91 0 -152 -70t-61 -162q0 -94 61 -161q62 -68 152 -68q91 0 153 69q62 71 62 160zM855 370 q0 -151 -116 -261q-115 -109 -270 -109t-270 108q-114 109 -114 264q0 235 207 333q-173 99 -173 304q0 145 102 250q103 106 248 106q144 0 248 -107t104 -249q0 -204 -174 -304q208 -99 208 -335z" />
<glyph unicode="9" horiz-adv-x="939" d="M717 940q0 112 -67 197q-71 92 -181 92q-107 0 -181 -92q-66 -86 -66 -197t66 -198q73 -93 181 -93q110 0 181 93q67 85 67 198zM853 940q0 -102 -42 -196h1l-379 -744l-121 61l244 480q-41 -29 -87 -29q-166 0 -278 133q-106 124 -106 295q0 170 106 294 q113 131 278 131q166 0 279 -131q105 -125 105 -294z" />
<glyph unicode=":" d="M85 0v137h137v-137h-137zM85 802v137h137v-137h-137z" />
<glyph unicode=";" d="M188 -135h-69l-34 272h137zM85 802v137h137v-137h-137z" />
<glyph unicode="&#x3c;" horiz-adv-x="623" d="M358 341l-273 342l273 341h180l-273 -341l273 -342h-180z" />
<glyph unicode="=" horiz-adv-x="683" d="M85 478v136h512v-136h-512zM85 751v136h512v-136h-512z" />
<glyph unicode="&#x3e;" horiz-adv-x="623" d="M265 341h-180l273 342l-273 341h180l273 -341z" />
<glyph unicode="?" horiz-adv-x="959" d="M259 0v137h137v-137h-137zM870 973q0 -167 -124 -278q-58 -42 -115 -84l-114 -84q-122 -104 -121 -254h-137q-3 195 120 314q58 42 115.5 83t114.5 83q125 92 125 220q0 118 -69 187q-68 69 -185 69q-119 0 -189 -69t-69 -187h-137v5q0 172 110 279q109 108 285 108 q174 0 282 -109q108 -110 108 -283z" />
<glyph unicode="@" horiz-adv-x="1280" d="M640 838l-65 -241h128zM770 324l-45 171h-170l-45 -171h-106l187 717h97l188 -717h-106zM1101 683q0 222 -116 377q-127 169 -343 169q-218 0 -345 -169q-118 -154 -118 -377q0 -224 118 -378q127 -168 345 -168q215 0 343 168q116 155 116 378zM1237 683 q0 -278 -155 -475q-166 -208 -440 -208q-276 0 -442 208q-157 193 -157 475q0 281 157 474q166 208 442 208q274 0 440 -208q155 -194 155 -474z" />
<glyph unicode="A" horiz-adv-x="853" d="M427 1126l-173 -648h345zM712 0l-87 341h-396l-87 -341h-142l355 1365h142l356 -1365h-141z" />
<glyph unicode="B" horiz-adv-x="990" d="M768 375q0 102 -58 169q-63 70 -162 70h-326v-477h326q99 0 162 70q58 67 58 168zM734 990q0 102 -58 169q-63 70 -162 70h-292v-478h292q99 0 162 70q58 67 58 169zM905 375q0 -156 -101 -266q-100 -109 -256 -109h-463v1365h429q155 0 255 -109q101 -110 101 -266 q0 -212 -170 -301q98 -38 151 -122q54 -84 54 -192z" />
<glyph unicode="C" horiz-adv-x="1237" d="M1195 413q-63 -189 -210 -301q-145 -112 -343 -112q-276 0 -442 208q-157 193 -157 475q0 281 157 474q166 208 442 208q194 0 343 -113q147 -113 210 -301l-137 -24q-49 138 -160 220q-109 82 -256 82q-218 0 -345 -169q-118 -154 -118 -377q0 -224 118 -378 q127 -168 345 -168q145 0 255 81q111 83 161 221z" />
<glyph unicode="D" horiz-adv-x="1033" d="M853 683q0 222 -116 377q-127 169 -343 169h-172v-1092h172q215 0 343 168q116 155 116 378zM990 683q0 -278 -155 -475q-168 -208 -441 -208h-309v1365h309q273 0 441 -208q155 -194 155 -474z" />
<glyph unicode="E" horiz-adv-x="768" d="M85 0v1365h598l-17 -136h-444v-478h273l17 -137h-290v-477h444l17 -137h-598z" />
<glyph unicode="F" horiz-adv-x="725" d="M666 1229h-444v-478h273l17 -137h-290v-614h-137v1365h598z" />
<glyph unicode="G" horiz-adv-x="1280" d="M1058 0v229q-61 -108 -175 -169q-113 -60 -241 -60q-273 0 -442 208q-157 193 -157 475q0 281 157 474q169 208 442 208q196 0 343 -114q147 -113 210 -300l-137 -24q-49 138 -160 220q-109 82 -256 82q-218 0 -345 -169q-118 -154 -118 -377q0 -224 118 -378 q127 -168 345 -168q142 0 255 81q111 82 161 219v109h-418v137h555v-683h-137z" />
<glyph unicode="H" horiz-adv-x="905" d="M683 0v614h-461v-614h-137v1365h137v-614h461v614h136v-1365h-136z" />
<glyph unicode="I" d="M85 0v1365h137v-1365h-137z" />
<glyph unicode="J" horiz-adv-x="794" d="M708 341q0 -141 -97 -241q-96 -100 -236 -100q-137 0 -234 102q-98 104 -98 239v171h136v-171q0 -82 58 -143t138 -61q82 0 139 60q58 61 58 144v1024h136v-1024z" />
<glyph unicode="K" horiz-adv-x="862" d="M649 0l-427 592v-592h-137v1365h137v-592l427 592h170l-512 -682l512 -683h-170z" />
<glyph unicode="L" horiz-adv-x="725" d="M85 0v1365h137v-1228h444l17 -137h-598z" />
<glyph unicode="M" horiz-adv-x="1087" d="M928 0l-46 1126l-268 -1126h-141l-268 1126l-46 -1126h-159l65 1365h210l269 -1100l268 1100h210l65 -1365h-159z" />
<glyph unicode="N" horiz-adv-x="905" d="M683 0l-461 1058v-1058h-137v1365h137l461 -1058v1058h136v-1365h-136z" />
<glyph unicode="O" horiz-adv-x="1280" d="M1101 683q0 222 -116 377q-127 169 -343 169q-218 0 -345 -169q-118 -154 -118 -377q0 -224 118 -378q127 -168 345 -168q215 0 343 168q116 155 116 378zM1237 683q0 -278 -155 -475q-166 -208 -440 -208q-276 0 -442 208q-157 193 -157 475q0 281 157 474 q166 208 442 208q274 0 440 -208q155 -194 155 -474z" />
<glyph unicode="P" horiz-adv-x="947" d="M768 990q0 101 -60 170q-59 69 -160 69h-326v-478h326q101 0 160 69q60 69 60 170zM905 990q0 -158 -100 -267t-257 -109h-326v-614h-137v1365h463q157 0 257 -109t100 -266z" />
<glyph unicode="Q" horiz-adv-x="1280" d="M1101 683q0 222 -116 377q-127 169 -343 169q-218 0 -345 -169q-118 -154 -118 -377q0 -224 118 -378q127 -168 345 -168q85 0 172 32l-285 285l97 96l304 -304q171 160 171 437zM1154 -169l-238 236q-124 -67 -274 -67q-276 0 -442 208q-157 193 -157 475q0 281 157 474 q166 208 442 208q274 0 440 -208q155 -194 155 -474q0 -333 -210 -535l224 -220z" />
<glyph unicode="R" horiz-adv-x="947" d="M768 990q0 102 -58 169q-63 70 -162 70h-326v-478h326q99 0 162 70q58 67 58 169zM737 0l-515 614v-614h-137v1365h463q156 0 256 -109q101 -110 101 -266q0 -157 -101 -267q-100 -109 -256 -109h-159l516 -614h-168z" />
<glyph unicode="S" horiz-adv-x="959" d="M737 973q2 120 -68 187q-71 69 -189 69q-59 0 -106 -18t-80 -51t-51 -80.5t-18 -106.5q0 -116 168 -191q78 -32 155 -65t155 -65q167 -96 167 -259q0 -175 -108 -284t-282 -109q-177 0 -286 109q-110 110 -109 284h137q-1 -118 69 -187t189 -69q117 0 185 69 q69 69 69 187q0 114 -167 189q-78 34 -155.5 66.5t-155.5 64.5q-167 96 -167 260q0 173 108 283q108 109 283 109q176 0 285 -109q110 -111 109 -283h-137z" />
<glyph unicode="T" horiz-adv-x="905" d="M845 1229h-324v-1229h-137v1229h-341l17 136h802z" />
<glyph unicode="U" horiz-adv-x="1024" d="M939 427q0 -174 -126 -301q-125 -126 -299 -126q-175 0 -303 125q-126 126 -126 302v938h137v-938q0 -119 86 -205q85 -85 206 -85q116 0 202 86t86 204v938h137v-938z" />
<glyph unicode="V" horiz-adv-x="853" d="M497 0h-142l-355 1365h142l285 -1126l285 1126h141z" />
<glyph unicode="W" horiz-adv-x="1087" d="M852 0h-210l-98 930l-99 -930h-209l-236 1365h142l199 -1126l132 1126h141l132 -1126l199 1126h142z" />
<glyph unicode="X" horiz-adv-x="853" d="M657 0l-230 546l-231 -546h-153l307 683l-307 682h153l231 -546l230 546h154l-308 -682l308 -683h-154z" />
<glyph unicode="Y" horiz-adv-x="768" d="M452 597v-597h-136v597l-316 768h154l230 -606l230 606h154z" />
<glyph unicode="Z" horiz-adv-x="853" d="M258 137h501l18 -137h-734l553 1229h-519l17 136h717z" />
<glyph unicode="[" horiz-adv-x="512" d="M85 -169v1705h342v-137h-205v-1431h205v-137h-342z" />
<glyph unicode="\" horiz-adv-x="659" d="M485 -157l-442 1647l131 34l442 -1647z" />
<glyph unicode="]" horiz-adv-x="512" d="M85 -169v137h205v1431h-205v137h342v-1705h-342z" />
<glyph unicode="^" horiz-adv-x="802" d="M563 683l-162 513l-162 -513h-154l239 682h154l239 -682h-154z" />
<glyph unicode="_" horiz-adv-x="683" d="M0 0v102h683v-102h-683z" />
<glyph unicode="`" horiz-adv-x="444" d="M256 1451l-171 307h171l102 -307h-102z" />
<glyph unicode="a" horiz-adv-x="853" d="M427 1126l-173 -648h345zM712 0l-87 341h-396l-87 -341h-142l355 1365h142l356 -1365h-141z" />
<glyph unicode="b" horiz-adv-x="990" d="M768 375q0 102 -58 169q-63 70 -162 70h-326v-477h326q99 0 162 70q58 67 58 168zM734 990q0 102 -58 169q-63 70 -162 70h-292v-478h292q99 0 162 70q58 67 58 169zM905 375q0 -156 -101 -266q-100 -109 -256 -109h-463v1365h429q155 0 255 -109q101 -110 101 -266 q0 -212 -170 -301q98 -38 151 -122q54 -84 54 -192z" />
<glyph unicode="c" horiz-adv-x="1237" d="M1195 413q-63 -189 -210 -301q-145 -112 -343 -112q-276 0 -442 208q-157 193 -157 475q0 281 157 474q166 208 442 208q194 0 343 -113q147 -113 210 -301l-137 -24q-49 138 -160 220q-109 82 -256 82q-218 0 -345 -169q-118 -154 -118 -377q0 -224 118 -378 q127 -168 345 -168q145 0 255 81q111 83 161 221z" />
<glyph unicode="d" horiz-adv-x="1033" d="M853 683q0 222 -116 377q-127 169 -343 169h-172v-1092h172q215 0 343 168q116 155 116 378zM990 683q0 -278 -155 -475q-168 -208 -441 -208h-309v1365h309q273 0 441 -208q155 -194 155 -474z" />
<glyph unicode="e" horiz-adv-x="768" d="M85 0v1365h598l-17 -136h-444v-478h273l17 -137h-290v-477h444l17 -137h-598z" />
<glyph unicode="f" horiz-adv-x="725" d="M666 1229h-444v-478h273l17 -137h-290v-614h-137v1365h598z" />
<glyph unicode="g" horiz-adv-x="1280" d="M1058 0v229q-61 -108 -175 -169q-113 -60 -241 -60q-273 0 -442 208q-157 193 -157 475q0 281 157 474q166 208 442 208q196 0 343 -114q147 -113 210 -300l-137 -24q-49 138 -160 220q-109 82 -256 82q-218 0 -345 -169q-118 -154 -118 -377q0 -224 118 -378 q127 -168 345 -168q142 0 255 81q111 82 161 219v109h-418v137h555v-683h-137z" />
<glyph unicode="h" horiz-adv-x="905" d="M683 0v614h-461v-614h-137v1365h137v-614h461v614h136v-1365h-136z" />
<glyph unicode="i" d="M85 0v1365h137v-1365h-137z" />
<glyph unicode="j" horiz-adv-x="794" d="M708 341q0 -141 -97 -241q-96 -100 -236 -100q-137 0 -234 102q-98 104 -98 239v171h136v-171q0 -82 58 -143t138 -61q82 0 139 60q58 61 58 144v1024h136v-1024z" />
<glyph unicode="k" horiz-adv-x="862" d="M649 0l-427 592v-592h-137v1365h137v-592l427 592h170l-512 -682l512 -683h-170z" />
<glyph unicode="l" horiz-adv-x="725" d="M85 0v1365h137v-1228h444l17 -137h-598z" />
<glyph unicode="m" horiz-adv-x="1087" d="M928 0l-46 1126l-268 -1126h-141l-268 1126l-46 -1126h-159l65 1365h210l269 -1100l268 1100h210l65 -1365h-159z" />
<glyph unicode="n" horiz-adv-x="905" d="M683 0l-461 1058v-1058h-137v1365h137l461 -1058v1058h136v-1365h-136z" />
<glyph unicode="o" horiz-adv-x="1280" d="M1101 683q0 222 -116 377q-127 169 -343 169q-218 0 -345 -169q-118 -154 -118 -377q0 -224 118 -378q127 -168 345 -168q215 0 343 168q116 155 116 378zM1237 683q0 -278 -155 -475q-166 -208 -440 -208q-276 0 -442 208q-157 193 -157 475q0 281 157 474 q166 208 442 208q274 0 440 -208q155 -194 155 -474z" />
<glyph unicode="p" horiz-adv-x="947" d="M768 990q0 101 -60 170q-59 69 -160 69h-326v-478h326q101 0 160 69q60 69 60 170zM905 990q0 -158 -100 -267t-257 -109h-326v-614h-137v1365h463q157 0 257 -109t100 -266z" />
<glyph unicode="q" horiz-adv-x="1280" d="M1101 683q0 222 -116 377q-127 169 -343 169q-218 0 -345 -169q-118 -154 -118 -377q0 -224 118 -378q127 -168 345 -168q85 0 172 32l-285 285l97 96l304 -304q171 160 171 437zM1154 -169l-238 236q-124 -67 -274 -67q-276 0 -442 208q-157 193 -157 475q0 281 157 474 q166 208 442 208q274 0 440 -208q155 -194 155 -474q0 -333 -210 -535l224 -220z" />
<glyph unicode="r" horiz-adv-x="947" d="M768 990q0 102 -58 169q-63 70 -162 70h-326v-478h326q99 0 162 70q58 67 58 169zM737 0l-515 614v-614h-137v1365h463q156 0 256 -109q101 -110 101 -266q0 -157 -101 -267q-100 -109 -256 -109h-159l516 -614h-168z" />
<glyph unicode="s" horiz-adv-x="959" d="M737 973q2 120 -68 187q-71 69 -189 69q-59 0 -106 -18t-80 -51t-51 -80.5t-18 -106.5q0 -116 168 -191q78 -32 155 -65t155 -65q167 -96 167 -259q0 -175 -108 -284t-282 -109q-177 0 -286 109q-110 110 -109 284h137q-1 -118 69 -187t189 -69q117 0 185 69 q69 69 69 187q0 114 -167 189q-78 34 -155.5 66.5t-155.5 64.5q-167 96 -167 260q0 173 108 283q108 109 283 109t285 -108q111 -108 109 -284h-137z" />
<glyph unicode="t" horiz-adv-x="905" d="M845 1229h-324v-1229h-137v1229h-341l17 136h802z" />
<glyph unicode="u" horiz-adv-x="1024" d="M939 427q0 -174 -126 -301q-125 -126 -299 -126q-175 0 -303 125q-126 126 -126 302v938h137v-938q0 -119 86 -205q85 -85 206 -85q116 0 202 86t86 204v938h137v-938z" />
<glyph unicode="v" horiz-adv-x="853" d="M497 0h-142l-355 1365h142l285 -1126l285 1126h141z" />
<glyph unicode="w" horiz-adv-x="1087" d="M852 0h-210l-98 930l-99 -930h-209l-236 1365h142l199 -1126l132 1126h141l132 -1126l199 1126h142z" />
<glyph unicode="x" horiz-adv-x="853" d="M657 0l-230 546l-231 -546h-153l307 683l-307 682h153l231 -546l230 546h154l-308 -682l308 -683h-154z" />
<glyph unicode="y" horiz-adv-x="768" d="M452 597v-597h-136v597l-316 768h154l230 -606l230 606h154z" />
<glyph unicode="z" horiz-adv-x="853" d="M258 137h501l18 -137h-734l553 1229h-519l17 136h717z" />
<glyph unicode="{" horiz-adv-x="717" d="M427 -169q-57 0 -97 40t-40 97v578q0 27 -20.5 47.5t-47.5 20.5h-137v137h137q27 0 47.5 20.5t20.5 47.5v580q0 57 40 97t97 40h204v-137h-136q-27 0 -47.5 -20t-20.5 -48v-512q0 -97 -70 -136q70 -40 70 -137v-512q0 -27 20.5 -46.5t47.5 -19.5h136v-137h-204z" />
<glyph unicode="|" d="M85 -169v1705h137v-1705h-137z" />
<glyph unicode="}" horiz-adv-x="717" d="M495 614q-27 0 -47.5 -20.5t-20.5 -47.5v-578q0 -56 -41 -97q-40 -40 -96 -40h-205v137h137q27 0 47.5 19.5t20.5 46.5v512q0 97 70 137q-70 37 -70 136v512q0 28 -20.5 48t-47.5 20h-137v137h205q56 0 96 -40q41 -41 41 -97v-580q0 -27 20.5 -47.5t47.5 -20.5h136v-137 h-136z" />
<glyph unicode="~" horiz-adv-x="785" d="M700 1109q-113 -119 -205 -119q-43 0 -102 59q-59 60 -103 60q-92 0 -205 -119v171q113 119 205 119q44 0 103 -60q59 -59 102 -59q92 0 205 119v-171z" />
<glyph unicode="&#xa1;" d="M85 -169l17 1091h103l17 -1091h-137zM85 1058v137h137v-137h-137z" />
<glyph unicode="&#xa2;" horiz-adv-x="980" d="M579 1227q-8 1 -15.5 1.5t-15.5 0.5q-157 0 -248 -130q-78 -114 -78 -280q0 -273 179 -374zM894 445q-127 -172 -346 -172q-34 0 -65 3l-39 -174h-120l46 205q-139 60 -216 212q-69 136 -69 300q0 226 118 377q127 169 345 169q32 0 61 -3l40 174h119l-46 -205 q102 -44 172 -140l-117 -68q-36 43 -86 72l-177 -784q3 -1 8 -1h9h17q140 0 227 105z" />
<glyph unicode="&#xa4;" horiz-adv-x="1113" d="M847 683q0 118 -86 204t-205 86t-205 -86q-85 -85 -85 -204q0 -120 85 -205t205 -85t205 85q86 86 86 205zM930 212l-124 124q-113 -80 -250 -80q-136 0 -249 80l-124 -124l-98 97l125 124q-80 113 -80 250q0 136 80 249l-125 124l98 98l124 -125q113 80 249 80 q137 0 250 -80l124 125l97 -98l-124 -124q80 -113 80 -249q0 -137 -80 -250l124 -124z" />
<glyph unicode="&#xa5;" horiz-adv-x="768" d="M452 597v-597h-136v597l-316 768h154l230 -606l230 606h154z" />
<glyph unicode="&#xa6;" d="M85 -169v783h137v-783h-137zM85 751v785h137v-785h-137z" />
<glyph unicode="&#xa8;" horiz-adv-x="580" d="M85 1451v136h137v-136h-137zM358 1451v136h137v-136h-137z" />
<glyph unicode="&#xa9;" horiz-adv-x="1280" d="M928 548q-30 -94 -105 -151q-74 -56 -171 -56q-136 0 -222 104q-78 97 -78 238q0 139 78 237q86 104 222 104q97 0 171 -57q75 -56 105 -150l-68 -11q-54 150 -208 150q-107 0 -172 -86q-60 -77 -60 -187q0 -112 60 -188q64 -85 172 -85q153 0 208 151zM1101 683 q0 222 -116 377q-127 169 -343 169q-218 0 -345 -169q-118 -154 -118 -377q0 -224 118 -378q127 -168 345 -168q215 0 343 168q116 155 116 378zM1237 683q0 -278 -155 -475q-166 -208 -440 -208q-276 0 -442 208q-157 193 -157 475q0 281 157 474q166 208 442 208 q274 0 440 -208q155 -194 155 -474z" />
<glyph unicode="&#xab;" horiz-adv-x="905" d="M290 85l-205 342l205 341h179l-204 -341l204 -342h-179zM640 85l-205 342l205 341h179l-205 -341l205 -342h-179z" />
<glyph unicode="&#xad;" horiz-adv-x="683" d="M85 614v137h512v-137h-512z" />
<glyph unicode="&#xae;" horiz-adv-x="1280" d="M777 836q0 51 -29.5 85.5t-80.5 34.5h-164v-239h164q25 0 45.5 9.5t35 25.5t22 38t7.5 46zM761 341l-258 308v-308h-68v683h232q79 0 128 -55q50 -56 50 -133t-50 -133q-50 -54 -128 -54h-80l258 -308h-84zM1101 683q0 222 -116 377q-127 169 -343 169q-218 0 -345 -169 q-118 -154 -118 -377q0 -224 118 -378q127 -168 345 -168q215 0 343 168q116 155 116 378zM1237 683q0 -278 -155 -475q-166 -208 -440 -208q-276 0 -442 208q-157 193 -157 475q0 281 157 474q166 208 442 208q274 0 440 -208q155 -194 155 -474z" />
<glyph unicode="&#xaf;" horiz-adv-x="683" d="M85 1451v136h512v-136h-512z" />
<glyph unicode="&#xb0;" horiz-adv-x="512" d="M341 1195q0 17 -7 32.5t-18.5 27t-27 18.5t-32.5 7t-32.5 -7t-27 -18.5t-18.5 -27t-7 -32.5t7 -32.5t18.5 -27.5t27 -19t32.5 -7t32.5 7t27 19t18.5 27.5t7 32.5zM427 1195q0 -70 -51 -121q-50 -50 -120 -50q-68 0 -121 50q-50 53 -50 121q0 70 50 120q53 50 121 50 q70 0 120 -50q51 -50 51 -120z" />
<glyph unicode="&#xb1;" horiz-adv-x="683" d="M85 0v137h512v-137h-512zM410 614v-187h-137v187h-188v137h188v188h137v-188h187v-137h-187z" />
<glyph unicode="&#xb4;" horiz-adv-x="444" d="M188 1451h-103l103 307h170z" />
<glyph unicode="&#xb6;" horiz-adv-x="1159" d="M1056 1229h-170v-1398h-137v1398h-170v-1398h-137v783q-156 0 -256 109q-101 110 -101 267q0 156 101 266q100 109 256 109h631z" />
<glyph unicode="&#xb7;" d="M85 614v137h137v-137h-137z" />
<glyph unicode="&#xbb;" horiz-adv-x="905" d="M265 85h-180l205 342l-205 341h180l204 -341zM614 85h-179l205 342l-205 341h179l205 -341z" />
<glyph unicode="&#xbf;" horiz-adv-x="959" d="M870 217q0 -173 -111 -279q-110 -107 -283 -107q-174 0 -283 109q-108 108 -108 282q0 167 125 278q57 42 114 83.5t115 83.5q122 104 121 255h136v-9q2 -191 -121 -309q-57 -42 -114.5 -82t-115.5 -82q-123 -92 -123 -218q0 -59 17.5 -106t50.5 -80t80 -50.5t106 -17.5 q118 0 189 68q70 67 69 186h136v-5zM560 1058v137h136v-137h-136z" />
<glyph unicode="&#xc0;" horiz-adv-x="853" d="M427 1126l-173 -648h345zM712 0l-87 341h-396l-87 -341h-142l355 1365h142l356 -1365h-141zM461 1451l-171 307h171l102 -307h-102z" />
<glyph unicode="&#xc1;" horiz-adv-x="853" d="M393 1451h-103l103 307h170zM427 1126l-173 -648h345zM712 0l-87 341h-396l-87 -341h-142l355 1365h142l356 -1365h-141z" />
<glyph unicode="&#xc2;" horiz-adv-x="853" d="M427 1126l-173 -648h345zM712 0l-87 341h-396l-87 -341h-142l355 1365h142l356 -1365h-141zM563 1451l-137 189l-136 -189h-154l188 256h205l188 -256h-154z" />
<glyph unicode="&#xc3;" horiz-adv-x="853" d="M682 1553q-92 -102 -170 -102q-38 0 -86 51q-47 51 -85 51q-77 0 -171 -102v136q94 103 171 103q39 0 85 -52q48 -51 86 -51q79 0 170 103v-137zM427 1126l-173 -648h345zM712 0l-87 341h-396l-87 -341h-142l355 1365h142l356 -1365h-141z" />
<glyph unicode="&#xc4;" horiz-adv-x="853" d="M427 1126l-173 -648h345zM712 0l-87 341h-396l-87 -341h-142l355 1365h142l356 -1365h-141zM222 1451v136h137v-136h-137zM495 1451v136h137v-136h-137z" />
<glyph unicode="&#xc5;" horiz-adv-x="853" d="M512 1621q0 17 -7 32.5t-18.5 27.5t-27 19t-32.5 7t-32.5 -7t-27 -19t-18.5 -27.5t-7 -32.5t7 -32.5t18.5 -27t27 -18.5t32.5 -7t32.5 7t27 18.5t18.5 27t7 32.5zM598 1621q0 -71 -51 -120q-50 -50 -120 -50q-68 0 -121 50q-50 50 -50 120t50 120q51 51 121 51t120 -51 q51 -50 51 -120zM427 1126l-173 -648h345zM712 0l-87 341h-396l-87 -341h-142l355 1365h142l356 -1365h-141z" />
<glyph unicode="&#xc6;" horiz-adv-x="1394" d="M427 1126l-173 -648h345zM712 0l-87 341h-396l-87 -341h-142l355 1365h142l215 -856v856h597l-17 -136h-444v-478h273l17 -137h-290v-477h444l17 -137h-597z" />
<glyph unicode="&#xc8;" horiz-adv-x="768" d="M418 1451l-171 307h171l102 -307h-102zM85 0v1365h598l-17 -136h-444v-478h273l17 -137h-290v-477h444l17 -137h-598z" />
<glyph unicode="&#xc9;" horiz-adv-x="768" d="M85 0v1365h598l-17 -136h-444v-478h273l17 -137h-290v-477h444l17 -137h-598zM350 1451h-103l103 307h170z" />
<glyph unicode="&#xca;" horiz-adv-x="768" d="M521 1451l-137 189l-136 -189h-154l188 256h205l188 -256h-154zM85 0v1365h598l-17 -136h-444v-478h273l17 -137h-290v-477h444l17 -137h-598z" />
<glyph unicode="&#xcb;" horiz-adv-x="768" d="M85 0v1365h598l-17 -136h-444v-478h273l17 -137h-290v-477h444l17 -137h-598zM179 1451v136h137v-136h-137zM452 1451v136h137v-136h-137z" />
<glyph unicode="&#xcc;" d="M191 1451l-171 307h171l102 -307h-102zM85 0v1365h137v-1365h-137z" />
<glyph unicode="&#xcd;" d="M85 0v1365h137v-1365h-137zM124 1451h-103l103 307h170z" />
<glyph unicode="&#xce;" d="M293 1451l-137 189l-136 -189h-154l188 256h205l188 -256h-154zM85 0v1365h137v-1365h-137z" />
<glyph unicode="&#xcf;" d="M-49 1451v136h137v-136h-137zM224 1451v136h137v-136h-137zM85 0v1365h137v-1365h-137z" />
<glyph unicode="&#xd1;" horiz-adv-x="905" d="M683 0l-461 1058v-1058h-137v1365h137l461 -1058v1058h136v-1365h-136zM708 1553q-92 -102 -170 -102q-38 0 -86 51q-47 51 -85 51q-77 0 -171 -102v136q94 103 171 103q39 0 85 -52q48 -51 86 -51q79 0 170 103v-137z" />
<glyph unicode="&#xd2;" horiz-adv-x="1280" d="M674 1451l-171 307h171l102 -307h-102zM1101 683q0 222 -116 377q-127 169 -343 169q-218 0 -345 -169q-118 -154 -118 -377q0 -224 118 -378q127 -168 345 -168q215 0 343 168q116 155 116 378zM1237 683q0 -278 -155 -475q-166 -208 -440 -208q-276 0 -442 208 q-157 193 -157 475q0 281 157 474q166 208 442 208q274 0 440 -208q155 -194 155 -474z" />
<glyph unicode="&#xd3;" horiz-adv-x="1280" d="M606 1451h-103l103 307h170zM1101 683q0 222 -116 377q-127 169 -343 169q-218 0 -345 -169q-118 -154 -118 -377q0 -224 118 -378q127 -168 345 -168q215 0 343 168q116 155 116 378zM1237 683q0 -278 -155 -475q-166 -208 -440 -208q-276 0 -442 208q-157 193 -157 475 q0 281 157 474q166 208 442 208q274 0 440 -208q155 -194 155 -474z" />
<glyph unicode="&#xd4;" horiz-adv-x="1280" d="M777 1451l-137 189l-136 -189h-154l188 256h205l188 -256h-154zM1101 683q0 222 -116 377q-127 169 -343 169q-218 0 -345 -169q-118 -154 -118 -377q0 -224 118 -378q127 -168 345 -168q215 0 343 168q116 155 116 378zM1237 683q0 -278 -155 -475q-166 -208 -440 -208 q-276 0 -442 208q-157 193 -157 475q0 281 157 474q166 208 442 208q274 0 440 -208q155 -194 155 -474z" />
<glyph unicode="&#xd5;" horiz-adv-x="1280" d="M1101 683q0 222 -116 377q-127 169 -343 169q-218 0 -345 -169q-118 -154 -118 -377q0 -224 118 -378q127 -168 345 -168q215 0 343 168q116 155 116 378zM1237 683q0 -278 -155 -475q-166 -208 -440 -208q-276 0 -442 208q-157 193 -157 475q0 281 157 474 q166 208 442 208q274 0 440 -208q155 -194 155 -474zM896 1553q-92 -102 -170 -102q-38 0 -86 51q-47 51 -85 51q-77 0 -171 -102v136q94 103 171 103q39 0 85 -52q48 -51 86 -51q79 0 170 103v-137z" />
<glyph unicode="&#xd6;" horiz-adv-x="1280" d="M1101 683q0 222 -116 377q-127 169 -343 169q-218 0 -345 -169q-118 -154 -118 -377q0 -224 118 -378q127 -168 345 -168q215 0 343 168q116 155 116 378zM1237 683q0 -278 -155 -475q-166 -208 -440 -208q-276 0 -442 208q-157 193 -157 475q0 281 157 474 q166 208 442 208q274 0 440 -208q155 -194 155 -474zM435 1451v136h137v-136h-137zM708 1451v136h137v-136h-137z" />
<glyph unicode="&#xd7;" horiz-adv-x="628" d="M447 454l-133 148l-133 -148l-96 96l149 133l-149 133l96 95l133 -148l133 148l96 -95l-149 -133l149 -133z" />
<glyph unicode="&#xd8;" horiz-adv-x="1280" d="M1101 683q0 182 -79 321l-691 -739q125 -128 311 -128q215 0 343 168q116 155 116 378zM949 1103q-122 126 -307 126q-218 0 -345 -169q-118 -154 -118 -377q0 -178 80 -321zM1118 1108q119 -185 119 -425q0 -278 -155 -475q-166 -208 -440 -208q-241 0 -403 164 l-154 -164l-85 85l162 174q-119 185 -119 424q0 281 157 474q166 208 442 208q240 0 401 -164l152 164l85 -85z" />
<glyph unicode="&#xd9;" horiz-adv-x="1024" d="M546 1451l-171 307h171l102 -307h-102zM939 427q0 -174 -126 -301q-125 -126 -299 -126q-175 0 -303 125q-126 126 -126 302v938h137v-938q0 -119 86 -205q85 -85 206 -85q116 0 202 86t86 204v938h137v-938z" />
<glyph unicode="&#xda;" horiz-adv-x="1024" d="M939 427q0 -174 -126 -301q-125 -126 -299 -126q-175 0 -303 125q-126 126 -126 302v938h137v-938q0 -119 86 -205q85 -85 206 -85q116 0 202 86t86 204v938h137v-938zM478 1451h-103l103 307h170z" />
<glyph unicode="&#xdb;" horiz-adv-x="1024" d="M649 1451l-137 189l-136 -189h-154l188 256h205l188 -256h-154zM939 427q0 -174 -126 -301q-125 -126 -299 -126q-175 0 -303 125q-126 126 -126 302v938h137v-938q0 -119 86 -205q85 -85 206 -85q116 0 202 86t86 204v938h137v-938z" />
<glyph unicode="&#xdc;" horiz-adv-x="1024" d="M307 1451v136h137v-136h-137zM580 1451v136h137v-136h-137zM939 427q0 -174 -126 -301q-125 -126 -299 -126q-175 0 -303 125q-126 126 -126 302v938h137v-938q0 -119 86 -205q85 -85 206 -85q116 0 202 86t86 204v938h137v-938z" />
<glyph unicode="&#xdd;" horiz-adv-x="768" d="M452 597v-597h-136v597l-316 768h154l230 -606l230 606h154zM350 1451h-103l103 307h170z" />
<glyph unicode="&#xde;" horiz-adv-x="947" d="M768 683q0 102 -58 169q-63 70 -162 70h-326v-478h326q99 0 162 70q58 67 58 169zM905 683q0 -157 -101 -267q-100 -109 -256 -109h-326v-307h-137v1365h137v-307h326q156 0 256 -109q101 -110 101 -266z" />
<glyph unicode="&#xdf;" horiz-adv-x="990" d="M905 375q0 -156 -101 -266q-100 -109 -256 -109h-138v137h138q99 0 162 70q58 67 58 168q0 102 -58 169q-63 70 -162 70h-138v137h104q99 0 162 70q58 67 58 169t-58 169q-63 70 -162 70h-292v-1398h-137v1534h429q155 0 255 -109q101 -110 101 -266q0 -212 -170 -301 q98 -38 151 -122q54 -84 54 -192z" />
<glyph unicode="&#xe0;" horiz-adv-x="853" d="M461 1451l-171 307h171l102 -307h-102zM427 1126l-173 -648h345zM712 0l-87 341h-396l-87 -341h-142l355 1365h142l356 -1365h-141z" />
<glyph unicode="&#xe1;" horiz-adv-x="853" d="M427 1126l-173 -648h345zM712 0l-87 341h-396l-87 -341h-142l355 1365h142l356 -1365h-141zM393 1451h-103l103 307h170z" />
<glyph unicode="&#xe2;" horiz-adv-x="853" d="M563 1451l-137 189l-136 -189h-154l188 256h205l188 -256h-154zM427 1126l-173 -648h345zM712 0l-87 341h-396l-87 -341h-142l355 1365h142l356 -1365h-141z" />
<glyph unicode="&#xe3;" horiz-adv-x="853" d="M427 1126l-173 -648h345zM712 0l-87 341h-396l-87 -341h-142l355 1365h142l356 -1365h-141zM682 1553q-92 -102 -170 -102q-38 0 -86 51q-47 51 -85 51q-77 0 -171 -102v136q94 103 171 103q39 0 85 -52q48 -51 86 -51q79 0 170 103v-137z" />
<glyph unicode="&#xe4;" horiz-adv-x="853" d="M222 1451v136h137v-136h-137zM495 1451v136h137v-136h-137zM427 1126l-173 -648h345zM712 0l-87 341h-396l-87 -341h-142l355 1365h142l356 -1365h-141z" />
<glyph unicode="&#xe5;" horiz-adv-x="853" d="M512 1621q0 17 -7 32.5t-18.5 27.5t-27 19t-32.5 7t-32.5 -7t-27 -19t-18.5 -27.5t-7 -32.5t7 -32.5t18.5 -27t27 -18.5t32.5 -7t32.5 7t27 18.5t18.5 27t7 32.5zM598 1621q0 -71 -51 -120q-50 -50 -120 -50q-68 0 -121 50q-50 50 -50 120t50 120q51 51 121 51t120 -51 q51 -50 51 -120zM427 1126l-173 -648h345zM712 0l-87 341h-396l-87 -341h-142l355 1365h142l356 -1365h-141z" />
<glyph unicode="&#xe6;" horiz-adv-x="1394" d="M427 1126l-173 -648h345zM712 0l-87 341h-396l-87 -341h-142l355 1365h142l215 -856v856h597l-17 -136h-444v-478h273l17 -137h-290v-477h444l17 -137h-597z" />
<glyph unicode="&#xe8;" horiz-adv-x="768" d="M418 1451l-171 307h171l102 -307h-102zM85 0v1365h598l-17 -136h-444v-478h273l17 -137h-290v-477h444l17 -137h-598z" />
<glyph unicode="&#xe9;" horiz-adv-x="768" d="M85 0v1365h598l-17 -136h-444v-478h273l17 -137h-290v-477h444l17 -137h-598zM350 1451h-103l103 307h170z" />
<glyph unicode="&#xea;" horiz-adv-x="768" d="M521 1451l-137 189l-136 -189h-154l188 256h205l188 -256h-154zM85 0v1365h598l-17 -136h-444v-478h273l17 -137h-290v-477h444l17 -137h-598z" />
<glyph unicode="&#xeb;" horiz-adv-x="768" d="M179 1451v136h137v-136h-137zM452 1451v136h137v-136h-137zM85 0v1365h598l-17 -136h-444v-478h273l17 -137h-290v-477h444l17 -137h-598z" />
<glyph unicode="&#xec;" d="M191 1451l-171 307h171l102 -307h-102zM85 0v1365h137v-1365h-137z" />
<glyph unicode="&#xed;" d="M123 1451h-103l103 307h170zM85 0v1365h137v-1365h-137z" />
<glyph unicode="&#xee;" d="M293 1451l-137 189l-136 -189h-154l188 256h205l188 -256h-154zM85 0v1365h137v-1365h-137z" />
<glyph unicode="&#xef;" d="M-49 1451v136h137v-136h-137zM224 1451v136h137v-136h-137zM85 0v1365h137v-1365h-137z" />
<glyph unicode="&#xf1;" horiz-adv-x="905" d="M683 0l-461 1058v-1058h-137v1365h137l461 -1058v1058h136v-1365h-136zM708 1553q-92 -102 -170 -102q-38 0 -86 51q-47 51 -85 51q-77 0 -171 -102v136q94 103 171 103q39 0 85 -52q48 -51 86 -51q79 0 170 103v-137z" />
<glyph unicode="&#xf2;" horiz-adv-x="1280" d="M674 1451l-171 307h171l102 -307h-102zM1101 683q0 222 -116 377q-127 169 -343 169q-218 0 -345 -169q-118 -154 -118 -377q0 -224 118 -378q127 -168 345 -168q215 0 343 168q116 155 116 378zM1237 683q0 -278 -155 -475q-166 -208 -440 -208q-276 0 -442 208 q-157 193 -157 475q0 281 157 474q166 208 442 208q274 0 440 -208q155 -194 155 -474z" />
<glyph unicode="&#xf3;" horiz-adv-x="1280" d="M1101 683q0 222 -116 377q-127 169 -343 169q-218 0 -345 -169q-118 -154 -118 -377q0 -224 118 -378q127 -168 345 -168q215 0 343 168q116 155 116 378zM1237 683q0 -278 -155 -475q-166 -208 -440 -208q-276 0 -442 208q-157 193 -157 475q0 281 157 474 q166 208 442 208q274 0 440 -208q155 -194 155 -474zM606 1451h-103l103 307h170z" />
<glyph unicode="&#xf4;" horiz-adv-x="1280" d="M777 1451l-137 189l-136 -189h-154l188 256h205l188 -256h-154zM1101 683q0 222 -116 377q-127 169 -343 169q-218 0 -345 -169q-118 -154 -118 -377q0 -224 118 -378q127 -168 345 -168q215 0 343 168q116 155 116 378zM1237 683q0 -278 -155 -475q-166 -208 -440 -208 q-276 0 -442 208q-157 193 -157 475q0 281 157 474q166 208 442 208q274 0 440 -208q155 -194 155 -474z" />
<glyph unicode="&#xf5;" horiz-adv-x="1280" d="M1101 683q0 222 -116 377q-127 169 -343 169q-218 0 -345 -169q-118 -154 -118 -377q0 -224 118 -378q127 -168 345 -168q215 0 343 168q116 155 116 378zM1237 683q0 -278 -155 -475q-166 -208 -440 -208q-276 0 -442 208q-157 193 -157 475q0 281 157 474 q166 208 442 208q274 0 440 -208q155 -194 155 -474zM896 1553q-92 -102 -170 -102q-38 0 -86 51q-47 51 -85 51q-77 0 -171 -102v136q94 103 171 103q39 0 85 -52q48 -51 86 -51q79 0 170 103v-137z" />
<glyph unicode="&#xf6;" horiz-adv-x="1280" d="M435 1451v136h137v-136h-137zM708 1451v136h137v-136h-137zM1101 683q0 222 -116 377q-127 169 -343 169q-218 0 -345 -169q-118 -154 -118 -377q0 -224 118 -378q127 -168 345 -168q215 0 343 168q116 155 116 378zM1237 683q0 -278 -155 -475q-166 -208 -440 -208 q-276 0 -442 208q-157 193 -157 475q0 281 157 474q166 208 442 208q274 0 440 -208q155 -194 155 -474z" />
<glyph unicode="&#xf7;" horiz-adv-x="683" d="M273 341v137h137v-137h-137zM85 614v137h512v-137h-512zM273 887v137h137v-137h-137z" />
<glyph unicode="&#xf8;" horiz-adv-x="1280" d="M1101 683q0 182 -79 321l-691 -739q125 -128 311 -128q215 0 343 168q116 155 116 378zM949 1103q-122 126 -307 126q-218 0 -345 -169q-118 -154 -118 -377q0 -178 80 -321zM1118 1108q119 -185 119 -425q0 -278 -155 -475q-166 -208 -440 -208q-241 0 -403 164 l-154 -164l-85 85l162 174q-119 185 -119 424q0 281 157 474q166 208 442 208q240 0 401 -164l152 164l85 -85z" />
<glyph unicode="&#xf9;" horiz-adv-x="1024" d="M546 1451l-171 307h171l102 -307h-102zM939 427q0 -174 -126 -301q-125 -126 -299 -126q-175 0 -303 125q-126 126 -126 302v938h137v-938q0 -119 86 -205q85 -85 206 -85q116 0 202 86t86 204v938h137v-938z" />
<glyph unicode="&#xfa;" horiz-adv-x="1024" d="M939 427q0 -174 -126 -301q-125 -126 -299 -126q-175 0 -303 125q-126 126 -126 302v938h137v-938q0 -119 86 -205q85 -85 206 -85q116 0 202 86t86 204v938h137v-938zM478 1451h-103l103 307h170z" />
<glyph unicode="&#xfb;" horiz-adv-x="1024" d="M649 1451l-137 189l-136 -189h-154l188 256h205l188 -256h-154zM939 427q0 -174 -126 -301q-125 -126 -299 -126q-175 0 -303 125q-126 126 -126 302v938h137v-938q0 -119 86 -205q85 -85 206 -85q116 0 202 86t86 204v938h137v-938z" />
<glyph unicode="&#xfc;" horiz-adv-x="1024" d="M307 1451v136h137v-136h-137zM580 1451v136h137v-136h-137zM939 427q0 -174 -126 -301q-125 -126 -299 -126q-175 0 -303 125q-126 126 -126 302v938h137v-938q0 -119 86 -205q85 -85 206 -85q116 0 202 86t86 204v938h137v-938z" />
<glyph unicode="&#xfd;" horiz-adv-x="768" d="M350 1451h-103l103 307h170zM452 597v-597h-136v597l-316 768h154l230 -606l230 606h154z" />
<glyph unicode="&#xfe;" horiz-adv-x="947" d="M768 683q0 102 -58 169q-63 70 -162 70h-326v-478h326q99 0 162 70q58 67 58 169zM905 683q0 -157 -101 -267q-100 -109 -256 -109h-326v-307h-137v1365h137v-307h326q156 0 256 -109q101 -110 101 -266z" />
<glyph unicode="&#xff;" horiz-adv-x="768" d="M452 597v-597h-136v597l-316 768h154l230 -606l230 606h154zM179 1451v136h137v-136h-137zM452 1451v136h137v-136h-137z" />
<glyph unicode="&#x152;" horiz-adv-x="1783" d="M1101 683q0 222 -116 377q-127 169 -343 169q-218 0 -345 -169q-118 -154 -118 -377q0 -224 118 -378q127 -168 345 -168q215 0 343 168q116 155 116 378zM1101 0v232q-166 -232 -459 -232q-276 0 -442 208q-157 193 -157 475q0 281 157 474q166 208 442 208 q293 0 459 -232v232h597l-17 -136h-444v-478h273l17 -137h-290v-477h444l17 -137h-597z" />
<glyph unicode="&#x153;" horiz-adv-x="1783" d="M1101 683q0 222 -116 377q-127 169 -343 169q-218 0 -345 -169q-118 -154 -118 -377q0 -224 118 -378q127 -168 345 -168q215 0 343 168q116 155 116 378zM1101 0v232q-166 -232 -459 -232q-276 0 -442 208q-157 193 -157 475q0 281 157 474q166 208 442 208 q293 0 459 -232v232h597l-17 -136h-444v-478h273l17 -137h-290v-477h444l17 -137h-597z" />
<glyph unicode="&#x178;" horiz-adv-x="768" d="M179 1451v136h137v-136h-137zM452 1451v136h137v-136h-137zM452 597v-597h-136v597l-316 768h154l230 -606l230 606h154z" />
<glyph unicode="&#x2c6;" horiz-adv-x="751" d="M512 1451l-137 189l-136 -189h-154l188 256h205l188 -256h-154z" />
<glyph unicode="&#x2dc;" horiz-adv-x="683" d="M597 1553q-92 -102 -170 -102q-38 0 -86 51q-47 51 -85 51q-77 0 -171 -102v136q94 103 171 103q39 0 85 -52q48 -51 86 -51q79 0 170 103v-137z" />
<glyph unicode="&#x2000;" horiz-adv-x="896" />
<glyph unicode="&#x2001;" horiz-adv-x="1792" />
<glyph unicode="&#x2002;" horiz-adv-x="896" />
<glyph unicode="&#x2003;" horiz-adv-x="1792" />
<glyph unicode="&#x2004;" horiz-adv-x="597" />
<glyph unicode="&#x2005;" horiz-adv-x="448" />
<glyph unicode="&#x2006;" horiz-adv-x="298" />
<glyph unicode="&#x2007;" horiz-adv-x="298" />
<glyph unicode="&#x2008;" horiz-adv-x="224" />
<glyph unicode="&#x2009;" horiz-adv-x="358" />
<glyph unicode="&#x200a;" horiz-adv-x="99" />
<glyph unicode="&#x2010;" horiz-adv-x="683" d="M85 614v137h512v-137h-512z" />
<glyph unicode="&#x2011;" horiz-adv-x="683" d="M85 614v137h512v-137h-512z" />
<glyph unicode="&#x2012;" horiz-adv-x="683" d="M85 614v137h512v-137h-512z" />
<glyph unicode="&#x2013;" horiz-adv-x="512" d="M85 614v137h342v-137h-342z" />
<glyph unicode="&#x2014;" horiz-adv-x="853" d="M85 614v137h683v-137h-683z" />
<glyph unicode="&#x2018;" d="M188 1092h-69l-34 273h137z" />
<glyph unicode="&#x2019;" d="M188 1092h-69l-34 273h137z" />
<glyph unicode="&#x201a;" d="M188 -135h-69l-34 272h137z" />
<glyph unicode="&#x201c;" horiz-adv-x="529" d="M188 1092h-69l-34 273h137zM410 1092h-69l-34 273h137z" />
<glyph unicode="&#x201d;" horiz-adv-x="529" d="M188 1092h-69l-34 273h137zM410 1092h-69l-34 273h137z" />
<glyph unicode="&#x201e;" horiz-adv-x="529" d="M188 -135h-69l-34 272h137zM410 -135h-69l-34 272h137z" />
<glyph unicode="&#x2022;" horiz-adv-x="887" d="M802 683q0 -180 -87 -304q-98 -140 -270 -140t-271 140q-89 125 -89 304q0 178 89 303q99 140 271 140t270 -140q87 -125 87 -303z" />
<glyph unicode="&#x2026;" horiz-adv-x="853" d="M85 0v137h137v-137h-137zM358 0v137h137v-137h-137zM631 0v137h137v-137h-137z" />
<glyph unicode="&#x202f;" horiz-adv-x="358" />
<glyph unicode="&#x2039;" horiz-adv-x="538" d="M273 341l-188 256l188 256h179l-187 -256l187 -256h-179z" />
<glyph unicode="&#x203a;" horiz-adv-x="538" d="M265 341h-180l188 256l-188 256h180l187 -256z" />
<glyph unicode="&#x205f;" horiz-adv-x="448" />
<glyph unicode="&#x20ac;" horiz-adv-x="1352" d="M1229 1106q-131 123 -311 123q-153 0 -271 -106q-109 -97 -155 -253h640l-43 -102h-621q-2 -20 -3.5 -41.5t-1.5 -43.5q0 -23 1.5 -44.5t3.5 -41.5h549l-42 -102h-483q47 -155 155 -253q118 -105 271 -105q183 0 311 122v-157q-147 -102 -328 -102q-205 0 -358 150 q-142 136 -193 345h-265l43 102h203q-2 22 -3.5 43t-1.5 43q0 21 1.5 42t3.5 43h-133l43 102h109q53 213 201 349q161 146 367 146q224 0 391 -146z" />
<glyph unicode="&#x2122;" horiz-adv-x="1073" d="M910 683l-24 563l-133 -563h-72l-133 563l-24 -563h-79l29 614h-150v-614h-68v614h-171l9 68h488l135 -549l135 549h104l32 -682h-78z" />
<glyph unicode="&#x25fc;" horiz-adv-x="1365" d="M0 1365h1365v-1365h-1365v1365z" />
</font>
</defs>
</svg>
